<?xml version="1.0" standalone="no"?>
<!DOCTYPE svg PUBLIC "-//W3C//DTD SVG 20010904//EN"
 "http://www.w3.org/TR/2001/REC-SVG-20010904/DTD/svg10.dtd">
<svg version="1.0" xmlns="http://www.w3.org/2000/svg"
 width="256.000000pt" height="256.000000pt" viewBox="0 0 256.000000 256.000000"
 preserveAspectRatio="xMidYMid meet">

<g transform="translate(0.000000,256.000000) scale(0.100000,-0.100000)"
fill="#000000" stroke="none">
<path d="M1135 2549 c-320 -39 -627 -203 -828 -442 l-40 -49 213 -213 213
-213 42 56 c79 107 182 183 319 235 76 29 89 31 221 31 128 1 147 -2 220 -27
101 -36 181 -84 259 -158 l62 -58 209 209 210 210 -55 56 c-169 172 -415 302
-661 349 -106 20 -283 26 -384 14z"/>
<path d="M1280 1275 l0 -295 305 0 c171 0 305 -4 305 -9 0 -23 -88 -136 -149
-193 -114 -105 -283 -178 -413 -178 l-48 0 0 -298 0 -299 58 4 c332 21 611
144 838 368 191 189 314 425 360 685 20 116 22 305 4 423 l-13 87 -624 0 -623
0 0 -295z"/>
</g>
</svg>
