<?xml version="1.0" standalone="no"?>
<!DOCTYPE svg PUBLIC "-//W3C//DTD SVG 20010904//EN"
 "http://www.w3.org/TR/2001/REC-SVG-20010904/DTD/svg10.dtd">
<svg version="1.0" xmlns="http://www.w3.org/2000/svg"
 width="1408.000000pt" height="768.000000pt" viewBox="0 0 1408.000000 768.000000"
 preserveAspectRatio="xMidYMid meet">

<g transform="translate(0.000000,768.000000) scale(0.100000,-0.100000)"
fill="#000000" stroke="none">
<path d="M6715 7229 c-145 -15 -328 -47 -503 -90 -1229 -300 -2210 -1315
-2476 -2562 -57 -268 -78 -466 -79 -737 0 -386 49 -702 165 -1060 310 -960
1031 -1743 1958 -2125 197 -81 492 -166 710 -204 254 -44 642 -58 890 -32 807
83 1582 475 2138 1081 273 298 493 641 645 1009 169 407 252 798 264 1246 25
959 -343 1865 -1028 2530 -460 446 -1019 747 -1632 880 -250 54 -375 67 -677
70 -157 2 -325 -1 -375 -6z m206 -106 c55 -42 60 -53 23 -53 -25 0 -98 44
-123 74 -12 14 -9 16 19 16 22 0 48 -12 81 -37z m137 5 c23 -18 41 -38 41 -44
1 -20 -69 2 -103 33 -17 15 -35 31 -40 35 -6 5 6 8 26 8 25 0 48 -9 76 -32z
m150 -13 l47 -45 -33 0 c-26 0 -44 10 -80 45 l-47 45 33 0 c26 0 44 -10 80
-45z m102 24 c8 -4 31 -24 50 -45 l35 -37 -39 6 c-27 4 -52 18 -78 44 -21 20
-38 41 -38 45 0 9 45 1 70 -13z m-509 -39 l34 -29 -36 -1 c-25 0 -50 10 -83
34 -44 31 -47 35 -25 38 34 5 71 -9 110 -42z m684 -11 c41 -42 44 -49 25 -49
-12 0 -31 5 -43 11 -22 12 -87 79 -87 90 0 3 13 4 29 1 18 -2 46 -22 76 -53z
m-843 12 c61 -39 67 -51 26 -51 -36 0 -144 60 -132 73 16 15 62 6 106 -22z
m918 19 c23 -7 46 -25 69 -55 19 -25 32 -47 30 -49 -15 -12 -71 21 -107 64
-46 54 -46 55 8 40z m-1045 -44 l59 -34 -36 -7 c-31 -6 -47 -2 -94 26 -49 27
-55 34 -38 40 33 13 47 10 109 -25z m1217 2 c24 -24 68 -83 68 -92 0 -14 -62
20 -86 47 -59 66 -59 67 -31 67 14 0 36 -10 49 -22z m-1362 -23 c28 -14 50
-30 50 -35 0 -19 -63 -10 -118 17 -45 22 -51 28 -36 34 33 13 53 10 104 -16z
m1475 9 c17 -7 85 -91 85 -106 0 -15 -43 2 -70 28 -14 13 -33 37 -43 54 -19
32 -11 39 28 24z m-1609 -41 c30 -14 54 -30 54 -35 0 -16 -71 -8 -121 13 -65
28 -64 36 4 48 5 0 33 -11 63 -26z m1744 2 c28 -15 88 -101 77 -111 -11 -12
-68 28 -83 59 -9 17 -23 40 -32 50 -19 22 -2 23 38 2z m-1860 -50 l44 -22 -33
-8 c-35 -8 -159 31 -144 45 25 24 65 19 133 -15z m2042 -51 c35 -62 35 -68 -1
-50 -24 13 -91 100 -91 119 0 4 15 1 33 -6 22 -9 41 -29 59 -63z m-752 41
c1120 -136 2070 -852 2517 -1895 47 -109 132 -366 162 -490 114 -475 114 -998
0 -1480 -124 -523 -391 -1035 -705 -1355 -135 -138 -165 -160 -83 -60 41 49
82 97 92 107 9 10 17 23 17 28 0 6 35 64 78 130 43 66 123 211 176 322 86 179
102 207 139 232 43 32 37 47 -10 23 -40 -21 -53 -39 -115 -157 -98 -187 -235
-381 -367 -520 -61 -64 -60 -63 20 40 176 224 329 486 422 720 52 131 116 343
123 410 4 38 -1 29 -29 -50 -19 -52 -46 -124 -62 -160 -39 -91 -155 -323 -160
-318 -2 2 7 34 20 71 14 37 25 77 25 87 0 11 9 27 19 37 25 23 37 55 46 123
10 81 36 171 57 203 11 15 63 53 116 83 137 80 148 87 136 91 -13 4 -221 -111
-251 -139 -31 -29 -59 -109 -72 -201 -10 -73 -38 -159 -41 -127 0 8 -16 -25
-34 -75 -50 -136 -143 -315 -164 -315 -13 0 -14 -2 -4 -9 10 -6 -2 -31 -53
-106 -228 -337 -571 -646 -970 -875 -331 -190 -750 -324 -1130 -361 -250 -24
-631 0 -895 56 -443 94 -933 341 -1290 651 -346 299 -594 638 -700 955 -48
141 -57 96 -11 -51 17 -54 24 -87 16 -76 -43 57 -165 325 -219 481 -36 102
-31 50 8 -100 39 -147 122 -360 199 -510 86 -168 237 -399 338 -516 68 -78 61
-84 -8 -8 -139 149 -249 307 -351 499 -62 117 -98 162 -139 175 -35 10 -27
-11 13 -34 29 -17 44 -41 85 -128 90 -194 143 -297 189 -368 43 -66 84 -134
120 -197 8 -15 53 -68 99 -118 46 -49 79 -90 74 -90 -14 0 -217 211 -284 295
-162 202 -329 492 -433 755 -207 523 -274 1109 -191 1664 76 508 297 1034 597
1424 194 252 458 507 708 684 428 302 952 497 1476 548 60 5 127 12 149 14 78
8 412 -4 535 -19z m-1425 -27 c77 -38 2 -54 -89 -19 -44 16 -47 19 -30 29 29
17 69 14 119 -10z m2255 -3 c19 -10 41 -37 60 -76 l31 -60 -38 24 c-23 15 -49
44 -66 75 -15 29 -25 52 -22 52 4 0 19 -7 35 -15z m-2397 -41 c26 -9 47 -20
47 -25 0 -19 -54 -21 -106 -3 -56 19 -66 29 -36 37 32 9 48 7 95 -9z m2533
-13 c22 -13 37 -34 48 -67 9 -26 14 -50 11 -53 -12 -11 -58 38 -80 87 -13 28
-21 52 -17 52 4 0 21 -9 38 -19z m-2666 -37 c78 -26 77 -25 55 -34 -31 -13
-85 -11 -135 4 l-45 14 35 16 c43 19 36 19 90 0z m2789 -20 c26 -15 41 -42 61
-106 l9 -28 -30 16 c-16 8 -34 25 -39 37 -4 12 -15 39 -24 60 -18 42 -16 44
23 21z m-2895 -45 c44 -11 47 -13 31 -26 -23 -16 -62 -17 -121 -2 l-45 12 28
18 c15 10 35 17 43 14 8 -2 37 -10 64 -16z m3027 -28 c19 -15 65 -121 52 -121
-18 0 -46 27 -62 58 -40 79 -36 101 10 63z m-3163 -32 c64 -16 70 -25 28 -39
-27 -9 -49 -9 -91 0 -30 6 -55 13 -55 15 0 6 53 34 63 35 5 0 29 -5 55 -11z
m3297 -52 c8 -13 21 -44 29 -70 13 -43 13 -46 -3 -38 -9 5 -23 17 -32 28 -16
18 -49 95 -49 114 0 15 38 -8 55 -34z m-3390 -25 l40 -8 -32 -17 c-25 -13 -46
-16 -88 -11 -30 4 -55 10 -55 15 0 14 54 38 75 33 11 -2 38 -8 60 -12z m3498
-35 c18 -13 52 -127 38 -127 -19 0 -52 45 -66 92 -18 63 -19 72 -2 58 6 -6 20
-16 30 -23z m-3629 -33 c52 -8 57 -16 21 -32 -29 -13 -67 -15 -115 -5 l-33 6
24 18 c27 21 36 22 103 13z m3758 -67 c8 -16 28 -117 23 -117 -1 0 -13 10 -28
23 -25 22 -47 80 -47 126 0 24 0 24 21 5 11 -10 25 -27 31 -37z m-3837 -16
l30 -7 -32 -17 c-35 -18 -153 -24 -153 -7 0 5 12 16 28 24 28 16 76 18 127 7z
m3942 -53 c6 -7 14 -40 18 -73 l8 -60 -23 20 c-30 27 -37 42 -45 99 -7 46 -7
48 12 38 11 -6 24 -17 30 -24z m-4053 -28 l31 0 -25 -20 c-19 -15 -41 -20 -94
-20 l-70 0 35 26 c25 18 42 24 63 20 16 -3 43 -6 60 -6z m4174 -137 l4 -58
-22 21 c-21 21 -39 76 -40 124 l0 25 27 -27 c21 -21 27 -39 31 -85z m-4274 48
c17 -7 16 -8 -7 -24 -18 -12 -46 -17 -89 -17 l-63 1 28 24 c29 26 88 33 131
16z m4374 -142 c3 -46 2 -60 -7 -54 -7 4 -10 14 -7 22 3 8 2 12 -3 9 -16 -10
-28 18 -34 78 l-6 59 26 -26 c22 -21 28 -38 31 -88z m-4478 36 c-20 -21 -33
-25 -82 -25 -32 0 -58 4 -58 9 0 21 48 40 104 40 l59 1 -23 -25z m4575 -122
c5 -69 -3 -78 -33 -35 -13 18 -20 47 -21 87 l-2 60 25 -25 c20 -20 26 -38 31
-87z m-4655 47 c0 -20 -42 -39 -100 -45 l-65 -7 21 22 c22 22 66 36 117 36 15
0 27 -3 27 -6z m4750 -151 c0 -57 -13 -69 -36 -34 -15 23 -20 60 -16 124 2 24
3 24 27 -9 18 -25 25 -46 25 -81z m-4840 54 c-1 -19 -51 -42 -106 -48 l-59 -8
24 26 c13 14 33 28 45 30 38 8 96 7 96 0z m4913 -93 c14 -23 16 -41 11 -81
l-7 -52 -19 22 c-13 17 -18 40 -18 82 0 32 4 59 8 59 4 0 16 -13 25 -30z
m-5014 -26 c-20 -19 -39 -26 -85 -31 l-59 -6 24 26 c25 28 43 33 106 36 l40 1
-26 -26z m5111 -143 c0 -63 -12 -80 -33 -47 -18 26 -22 73 -10 115 l6 24 19
-22 c12 -15 18 -39 18 -70z m-5180 61 c0 -19 -39 -42 -89 -53 -61 -13 -73 -7
-44 23 27 26 133 50 133 30z m5259 -162 c-1 -25 -4 -56 -8 -70 -7 -25 -8 -24
-25 13 -15 29 -17 49 -11 94 l7 57 19 -25 c12 -16 18 -39 18 -69z m-5354 36
c-11 -16 -34 -28 -75 -39 -33 -8 -60 -12 -60 -8 0 4 11 18 24 30 24 23 65 39
104 40 21 1 22 0 7 -23z m5435 -127 c0 -10 -5 -42 -11 -70 -11 -51 -12 -52
-25 -28 -15 26 -18 78 -7 129 l6 33 19 -22 c10 -13 18 -31 18 -42z m-5506 16
c-10 -16 -35 -30 -71 -40 -30 -9 -57 -14 -60 -11 -3 2 2 15 11 28 18 25 66 46
109 47 27 1 27 1 11 -24z m5575 -144 c0 -20 -6 -54 -13 -76 l-13 -40 -12 28
c-12 32 -14 78 -5 126 6 30 8 31 25 15 12 -11 19 -30 18 -53z m-5639 54 c0
-22 -38 -56 -72 -65 -21 -6 -46 -14 -55 -17 -13 -5 -13 -2 1 25 12 24 28 35
64 46 54 17 62 18 62 11z m-79 -143 c-13 -19 -39 -36 -68 -46 -63 -22 -68 -21
-43 13 18 26 117 76 129 66 2 -2 -6 -17 -18 -33z m5784 -49 c-3 -18 -12 -47
-20 -65 l-13 -33 -11 28 c-14 35 -14 44 0 108 l11 51 19 -28 c14 -20 18 -39
14 -61z m-5840 -64 c-12 -21 -33 -38 -72 -55 -30 -14 -57 -23 -59 -21 -2 1 5
17 16 34 13 21 35 38 72 52 29 11 54 20 56 20 1 1 -5 -13 -13 -30z m5895 -18
c10 -25 9 -39 -5 -80 -9 -28 -20 -51 -25 -51 -16 0 -21 60 -9 114 13 60 20 63
39 17z m-5955 -112 c-11 -21 -33 -38 -68 -54 -29 -12 -53 -21 -55 -20 -2 2 4
17 13 35 10 19 32 39 58 51 61 27 71 25 52 -12z m6014 -17 c10 -24 9 -38 -10
-87 l-22 -58 -14 28 c-14 25 -13 35 2 91 18 68 25 72 44 26z m-6049 -77 c0 -4
-7 -19 -15 -35 -19 -36 -115 -87 -115 -61 1 25 22 48 71 76 44 25 59 30 59 20z
m6095 -115 c-8 -22 -21 -50 -29 -62 -14 -20 -15 -19 -21 16 -4 20 -2 48 4 64
6 15 16 41 22 57 l11 30 14 -32 c12 -27 11 -38 -1 -73z m-6159 -48 c-13 -24
-90 -82 -110 -82 -3 0 0 14 6 30 7 21 26 40 61 60 28 16 53 27 55 25 2 -2 -3
-17 -12 -33z m6209 -31 c4 -21 -1 -44 -21 -83 l-27 -53 -10 28 c-7 22 -4 42
13 87 24 63 34 68 45 21z m-6244 -94 c-10 -24 -97 -94 -107 -84 -15 14 13 56
59 89 55 38 64 37 48 -5z m6265 -113 c-16 -30 -32 -54 -37 -54 -19 0 -8 73 18
123 l27 52 10 -34 c8 -29 6 -41 -18 -87z m-6296 0 c0 -28 -19 -53 -67 -85
l-46 -32 7 29 c4 16 26 46 49 66 46 42 57 46 57 22z m6349 -71 c1 -23 -48
-113 -61 -113 -17 0 -7 58 19 111 28 56 41 56 42 2z m-6384 -83 c-4 -17 -18
-38 -33 -48 -15 -9 -36 -25 -46 -34 -24 -22 -26 -20 -19 14 5 27 89 115 100
105 3 -3 2 -20 -2 -37z m6384 -117 c-27 -46 -33 -53 -41 -38 -13 22 -4 54 30
108 l27 45 8 -30 c6 -23 2 -40 -24 -85z m-6404 -5 c-9 -39 -16 -49 -68 -91
l-40 -31 6 34 c5 24 21 48 54 78 26 23 49 42 51 42 2 0 0 -15 -3 -32z m6455
-64 c0 -21 -52 -108 -72 -121 -21 -12 -1 72 28 118 29 46 44 47 44 3z m-6474
-75 c-3 -17 -26 -52 -51 -77 l-45 -47 0 34 c0 26 9 43 44 77 24 24 47 44 51
44 4 0 5 -14 1 -31z m6458 -130 c-14 -21 -32 -44 -40 -50 -26 -21 -5 62 29
115 l32 51 3 -39 c3 -28 -3 -48 -24 -77z m-6474 -6 c0 -19 -15 -45 -45 -78
l-44 -50 -1 33 c0 24 10 43 41 77 23 25 43 45 45 45 2 0 4 -12 4 -27z m6510
-67 c0 -23 -11 -48 -37 -82 l-38 -49 -3 33 c-3 25 5 44 33 82 20 28 39 50 41
50 2 0 4 -15 4 -34z m-6561 -156 c-23 -28 -43 -49 -45 -48 -1 2 1 22 6 46 5
29 19 56 41 78 l34 35 3 -30 c3 -24 -6 -42 -39 -81z m6571 26 c0 -25 -10 -47
-37 -80 -21 -24 -41 -45 -45 -45 -5 -1 -8 12 -8 28 0 18 14 46 42 80 23 28 43
51 45 51 2 0 3 -15 3 -34z m-6567 -167 l-38 -51 -3 31 c-4 34 9 62 47 106 l26
31 3 -34 c3 -26 -5 -44 -35 -83z m6567 27 c0 -28 -36 -83 -67 -104 -22 -14
-23 -13 -23 13 0 16 14 43 38 70 42 51 52 55 52 21z m-6520 -83 c-1 -16 -18
-51 -40 -83 l-40 -55 0 41 c0 30 8 51 32 82 38 49 48 52 48 15z m6493 -105
c-10 -17 -33 -42 -51 -56 l-32 -25 6 34 c4 20 23 51 48 77 36 38 41 41 44 22
2 -11 -5 -35 -15 -52z m-6520 -117 c-33 -49 -38 -53 -41 -32 -6 36 4 63 40
112 l33 44 3 -34 c3 -25 -6 -47 -35 -90z m6527 23 c0 -27 -75 -114 -98 -114
-24 0 9 66 50 102 24 21 44 38 46 38 1 0 2 -12 2 -26z m-6501 -160 l-34 -56
-9 30 c-7 25 -3 40 25 89 l33 58 10 -32 c8 -28 4 -40 -25 -89z m6469 -11 c-11
-23 -88 -86 -96 -79 -10 10 25 67 61 99 45 41 60 32 35 -20z m-6418 -62 c0
-24 -49 -111 -62 -111 -19 0 -6 72 19 114 28 46 43 45 43 -3z m6410 -32 c0
-29 -35 -77 -75 -101 -25 -15 -45 -25 -45 -22 0 22 33 73 56 89 16 10 33 24
37 32 10 16 27 17 27 2z m-6408 -164 c-21 -47 -31 -62 -36 -50 -12 32 -6 66
21 118 26 52 26 52 35 25 7 -21 3 -41 -20 -93z m6369 -9 c-11 -28 -104 -93
-109 -77 -8 24 37 77 92 108 25 14 30 5 17 -31z m-6312 -63 c1 -23 -40 -123
-50 -123 -4 0 -9 14 -13 32 -8 40 43 162 55 131 4 -10 8 -28 8 -40z m6275 -55
c-9 -33 -33 -57 -77 -80 l-39 -19 7 23 c10 32 34 57 75 79 44 23 43 23 34 -3z
m-6238 -55 c8 -29 -24 -133 -40 -136 -23 -4 -25 56 -3 109 12 30 25 54 29 54
4 0 11 -12 14 -27z m6194 -92 c-8 -20 -27 -38 -57 -52 -50 -24 -58 -22 -42 14
10 23 98 81 108 72 2 -3 -2 -18 -9 -34z m-6155 -118 c-23 -74 -32 -83 -41 -38
-5 26 -1 55 11 94 l18 56 13 -32 c11 -26 11 -39 -1 -80z m6114 -2 c-13 -36
-20 -43 -81 -69 l-48 -21 15 28 c13 26 37 47 90 77 31 19 35 16 24 -15z
m-6065 -143 c-16 -56 -19 -59 -31 -42 -17 22 -13 91 7 139 l12 30 15 -33 c12
-29 12 -41 -3 -94z m6012 14 c-19 -37 -32 -47 -84 -65 -48 -17 -51 -13 -19 27
18 22 82 59 115 65 1 1 -4 -12 -12 -27z m-5951 -65 c4 -18 0 -57 -8 -87 l-14
-55 -15 35 c-13 31 -13 42 0 92 15 62 28 67 37 15z m5890 -68 c-15 -28 -42
-45 -104 -64 l-23 -7 18 30 c11 19 36 39 63 51 62 26 64 26 46 -10z m-5832
-36 c10 -21 11 -43 4 -90 -5 -35 -13 -63 -17 -63 -21 0 -32 70 -19 125 7 30
14 55 15 55 2 0 10 -12 17 -27z m5769 -93 c-12 -20 -32 -34 -66 -45 -52 -17
-66 -14 -50 13 12 19 90 61 116 62 16 0 16 -2 0 -30z m-5699 -130 l-10 -65
-17 40 c-14 29 -16 52 -11 89 9 68 16 76 33 36 11 -26 12 -50 5 -100z m5638
22 c-5 -10 -16 -24 -24 -30 -15 -13 -109 -44 -115 -38 -9 10 48 59 83 71 56
20 68 19 56 -3z m-5567 -46 c12 -19 14 -39 9 -85 -3 -34 -9 -61 -12 -61 -4 0
-14 12 -23 28 -11 19 -14 43 -11 85 3 31 9 57 13 57 4 0 15 -11 24 -24z m5490
-80 c-8 -14 -30 -29 -47 -35 -90 -27 -106 -23 -63 18 24 23 65 39 104 40 22 1
22 0 6 -23z m-5404 -113 c0 -34 -4 -64 -8 -67 -5 -3 -16 11 -25 30 -13 26 -15
49 -11 91 l7 55 18 -23 c13 -17 19 -42 19 -86z m5323 -4 c-25 -26 -41 -33 -85
-36 l-53 -5 25 26 c16 16 44 30 70 35 74 14 77 13 43 -20z m-5243 -105 c0 -35
-2 -64 -5 -64 -3 0 -13 13 -23 29 -12 20 -16 44 -13 87 l3 59 19 -24 c14 -17
19 -39 19 -87z m5166 -3 c-23 -24 -38 -30 -81 -33 -46 -3 -52 -1 -42 12 6 8
12 17 13 18 6 9 82 31 108 32 l30 0 -28 -29z m-5078 -103 c5 -63 -6 -74 -32
-36 -11 15 -16 45 -16 87 l0 64 22 -28 c15 -20 23 -46 26 -87z m4992 -2 c-18
-17 -42 -26 -84 -31 -43 -5 -56 -4 -51 5 16 26 72 50 115 50 l45 0 -25 -24z
m-4915 -36 c9 -17 14 -50 13 -80 l-2 -52 -23 27 c-18 21 -23 38 -23 86 0 64 9
69 35 19z m4838 -59 c-29 -30 -59 -41 -110 -41 l-48 1 33 29 c28 26 40 30 88
30 53 0 54 -1 37 -19z m-4754 -35 c14 -22 21 -50 21 -82 l-1 -49 -24 28 c-20
23 -25 39 -25 83 0 30 2 54 4 54 2 0 14 -15 25 -34z m4651 -71 c-20 -21 -32
-25 -84 -25 l-61 1 28 24 c23 20 39 25 84 25 l56 0 -23 -25z m-4544 -36 c8
-16 14 -50 14 -76 l-1 -48 -24 28 c-17 19 -25 40 -25 65 0 20 -3 48 -7 62 -6
23 -5 24 11 11 9 -8 24 -27 32 -42z m406 -11 c2 -25 9 -34 28 -39 l25 -6 -27
-13 c-22 -10 -28 -20 -28 -44 l0 -31 -19 24 c-14 19 -24 22 -44 17 -26 -6 -26
-5 -15 19 10 22 8 29 -12 50 -27 28 -26 28 16 16 28 -8 33 -6 43 15 15 33 29
30 33 -8z m3661 -7 c30 8 35 -2 12 -21 -17 -14 -20 -46 -5 -55 22 -13 8 -24
-16 -13 -23 11 -29 10 -44 -10 -24 -29 -27 -28 -22 8 3 25 0 30 -22 36 -32 8
-34 21 -3 26 17 2 23 11 25 38 l4 35 21 -26 c18 -22 27 -25 50 -18z m397 -18
c0 -3 -7 -15 -17 -25 -12 -13 -31 -18 -75 -18 -62 0 -72 9 -36 34 22 16 128
23 128 9z m-4361 -61 c7 -16 11 -46 9 -67 -3 -37 -3 -37 -25 -18 -15 13 -23
36 -28 77 -7 56 -7 58 12 47 11 -5 26 -23 32 -39z m4246 -48 c-25 -21 -38 -25
-78 -21 -57 5 -67 12 -41 32 12 9 42 14 84 14 l65 0 -30 -25z m-4135 -86 c4
-29 6 -54 5 -56 -2 -2 -14 7 -29 20 -20 18 -27 35 -32 83 l-6 60 28 -27 c20
-20 29 -41 34 -80z m526 36 c40 -24 45 -30 39 -53 -9 -35 -33 -71 -48 -71 -6
0 -25 7 -42 16 -27 14 -30 14 -42 -2 -7 -10 -13 -21 -13 -26 0 -10 -11 -10
-28 1 -11 7 -5 25 30 85 23 41 47 76 51 76 5 0 29 -12 53 -26z m2969 5 c4 -6
-1 -17 -11 -24 -18 -13 -18 -17 14 -77 37 -74 38 -78 14 -78 -13 0 -28 19 -47
60 -25 52 -32 60 -53 58 -42 -5 -34 16 16 44 53 31 58 32 67 17z m563 -24 c2
-2 -12 -11 -30 -22 -25 -15 -46 -19 -85 -15 -59 4 -66 14 -25 37 19 10 42 13
82 9 30 -4 56 -8 58 -9z m-3983 -25 c18 -20 49 -130 36 -130 -21 0 -53 52 -60
99 -9 55 -4 62 24 31z m565 -20 c0 -6 -13 -37 -30 -70 -16 -33 -30 -61 -30
-64 0 -2 14 -9 30 -16 28 -12 38 -29 24 -43 -4 -3 -28 5 -55 18 l-48 25 37 80
c26 55 42 80 55 80 9 0 17 -5 17 -10z m2750 -80 c22 -44 38 -80 36 -80 -2 0
-11 -3 -20 -6 -11 -4 -25 15 -55 74 -22 44 -37 82 -34 86 18 17 37 -2 73 -74z
m225 40 c0 -22 -29 -18 -33 3 -3 14 1 18 15 15 10 -2 18 -10 18 -18z m311 -16
c-24 -21 -36 -25 -65 -20 -20 3 -47 6 -61 6 l-25 1 24 19 c18 16 38 20 90 20
l66 -1 -29 -25z m-3741 -4 c16 -18 49 -119 41 -127 -10 -10 -57 43 -66 75 -19
70 -10 90 25 52z m624 -19 c11 -7 12 -25 3 -95 -5 -48 -12 -90 -15 -93 -11
-10 -27 9 -27 32 0 16 -7 25 -26 29 -15 4 -32 2 -37 -3 -12 -12 -47 -15 -47
-5 0 12 115 144 125 144 6 0 16 -4 24 -9z m2398 1 c13 -8 63 -118 63 -139 0
-12 -107 -71 -114 -62 -12 16 -65 164 -60 168 6 6 84 40 94 40 3 1 10 -3 17
-7z m-2887 -87 c5 -13 12 -40 16 -60 l7 -37 -26 17 c-16 10 -32 36 -43 68 -9
29 -19 59 -22 66 -4 10 6 7 27 -8 18 -13 36 -34 41 -46z m3507 46 c10 -5 4
-12 -19 -23 -27 -13 -44 -14 -91 -5 l-57 10 28 18 c20 14 39 17 76 13 28 -3
56 -9 63 -13z m-2900 -9 c6 -4 15 -31 19 -60 3 -28 10 -52 14 -52 4 0 13 18
20 40 9 29 19 40 33 40 22 0 22 0 -16 -100 -18 -49 -29 -65 -43 -65 -15 0 -21
11 -28 58 -5 31 -12 57 -16 57 -4 0 -13 -20 -20 -45 -12 -41 -31 -57 -44 -36
-5 8 34 137 49 161 7 12 16 12 32 2z m2152 -83 c17 -44 31 -82 31 -84 0 -1 -7
-6 -17 -9 -10 -4 -33 7 -65 34 -51 44 -57 41 -33 -17 19 -46 19 -53 -3 -53
-16 0 -44 63 -70 156 -2 6 4 14 14 18 10 4 33 -8 65 -35 l49 -41 -15 43 c-16
43 -14 69 4 69 5 0 23 -36 40 -81z m606 27 l50 -12 -32 -17 c-37 -20 -62 -20
-118 -3 l-40 12 30 17 c35 19 43 19 110 3z m-3273 -23 c14 -16 28 -40 32 -55
3 -14 9 -33 12 -42 8 -21 -8 -20 -34 3 -19 16 -52 88 -52 112 0 16 16 9 42
-18z m2475 0 c3 -7 -10 -16 -29 -21 -20 -5 -34 -16 -37 -27 -3 -15 2 -17 33
-12 28 4 36 2 36 -9 0 -8 -11 -19 -25 -24 -15 -6 -25 -17 -25 -30 0 -17 4 -19
25 -14 44 11 60 10 60 -5 0 -12 -70 -40 -101 -41 -9 0 -48 132 -49 165 0 10
72 35 94 32 8 -1 16 -7 18 -14z m-1720 -1 c8 -5 5 -29 -13 -91 -13 -47 -27
-87 -29 -90 -3 -3 -12 2 -19 10 -11 12 -9 27 12 97 25 83 28 87 49 74z m126
-33 c51 -12 58 -32 14 -37 -20 -3 -27 -10 -32 -35 -16 -80 -27 -107 -40 -107
-19 0 -19 30 -1 99 13 50 13 54 -5 58 -11 3 -19 14 -19 25 0 14 5 18 18 14 9
-3 39 -10 65 -17z m-731 -82 c25 -61 23 -71 -8 -51 -28 19 -48 53 -59 103 l-7
34 28 -22 c16 -13 37 -42 46 -64z m2168 68 c6 -8 9 -19 5 -25 -8 -13 -32 -13
-37 1 -2 7 -13 9 -26 4 -33 -10 -22 -29 21 -36 49 -8 67 -25 67 -65 0 -30 -4
-34 -37 -43 -55 -16 -71 -14 -78 9 -8 26 3 46 18 31 12 -12 50 -15 60 -5 15
16 -8 34 -43 34 -41 0 -54 11 -64 52 -5 21 -1 30 16 42 28 20 82 21 98 1z
m845 1 l40 -13 -36 -16 c-32 -14 -40 -14 -89 0 -49 14 -52 17 -35 29 23 17 67
17 120 0z m-1980 -46 c26 -10 26 -11 19 -82 -9 -95 -14 -101 -83 -92 -31 3
-57 8 -59 9 -3 3 12 102 23 153 4 17 12 22 40 22 18 0 46 -4 60 -10z m855 -4
c0 -7 -9 -16 -21 -19 -17 -5 -20 -11 -15 -34 3 -15 8 -49 12 -75 6 -44 4 -48
-14 -48 -18 0 -21 8 -27 58 -3 31 -7 64 -8 72 -2 9 -13 15 -27 15 -16 0 -25 6
-25 15 0 10 14 17 45 21 74 10 80 10 80 -5z m-1764 -81 c13 -27 22 -51 20 -53
-2 -2 -17 3 -34 12 -19 10 -36 32 -51 65 -27 64 -27 66 10 44 20 -11 41 -37
55 -68z m2779 61 l30 -13 -37 -12 c-30 -10 -46 -9 -95 5 l-58 17 30 13 c32 15
79 11 130 -10z m-1699 4 c26 -10 27 -11 22 -86 -3 -49 -10 -79 -19 -85 -14
-10 -92 -5 -111 7 -10 7 -3 148 8 166 7 11 67 10 100 -2z m529 -57 c3 -38 8
-78 10 -89 3 -15 -1 -23 -15 -27 -21 -6 -25 5 -35 116 -6 62 -5 67 13 67 18 0
21 -9 27 -67z m-357 51 c21 -6 22 -12 22 -89 0 -89 -4 -95 -58 -95 -68 0 -72
5 -72 89 0 47 5 82 12 89 13 13 59 16 96 6z m104 -21 c0 -16 1 -34 1 -40 -1
-23 12 -14 37 27 14 22 33 40 42 40 24 0 23 -9 -6 -44 l-23 -30 28 -48 c16
-27 29 -53 29 -58 0 -23 -31 -7 -52 25 -27 40 -41 40 -48 -1 -3 -17 -12 -30
-23 -32 -15 -3 -17 7 -17 92 0 79 3 96 15 96 9 0 16 -10 17 -27z m-1236 -84
c14 -28 23 -53 21 -55 -2 -3 -17 1 -32 8 -18 8 -35 30 -51 66 -13 30 -24 56
-24 59 0 2 13 -3 30 -12 18 -9 40 -35 56 -66z m2532 23 c-29 -12 -39 -12 -85
4 -29 9 -53 21 -53 25 0 5 14 12 32 17 24 6 47 3 86 -12 l53 -19 -33 -15z
m-2406 -71 c15 -25 26 -46 24 -48 -2 -2 -15 -1 -29 2 -27 7 -62 55 -73 102
l-7 25 28 -18 c16 -10 41 -38 57 -63z m418 59 c0 -11 -6 -20 -13 -20 -19 0
-27 10 -20 26 8 21 33 17 33 -6z m1837 -7 c58 -18 65 -27 31 -37 -38 -10 -61
-7 -108 15 -39 19 -43 22 -25 29 30 13 43 12 102 -7z m-657 -12 c0 -10 -7 -22
-16 -25 -23 -9 -24 -8 -24 19 0 18 5 25 20 25 13 0 20 -7 20 -19z m-1522 -25
c16 -8 40 -37 55 -65 l28 -50 -32 11 c-20 7 -42 27 -60 56 -41 65 -39 73 9 48z
m2049 -12 l58 -26 -33 -10 c-27 -7 -45 -5 -88 13 -54 22 -58 32 -19 42 11 3
21 5 22 6 1 0 28 -11 60 -25z m-1909 -33 c13 -8 73 -93 69 -98 -2 -1 -16 1
-32 5 -19 5 -39 25 -62 61 -32 50 -33 52 -11 46 13 -4 29 -11 36 -14z m1792
-12 c35 -16 41 -22 30 -29 -8 -5 -26 -10 -39 -10 -27 0 -111 39 -111 52 0 15
75 8 120 -13z m-1663 -18 c6 -3 28 -28 48 -55 l38 -48 -34 7 c-35 7 -60 30
-93 86 l-18 31 23 -7 c13 -4 29 -10 36 -14z m1534 -20 l51 -29 -41 -7 c-33 -5
-49 -2 -90 21 -32 19 -46 31 -38 36 24 15 69 7 118 -21z m-1369 -44 c42 -46
46 -57 22 -57 -28 0 -53 19 -84 66 l-31 45 28 -7 c15 -3 45 -24 65 -47z m1251
5 c15 -7 25 -18 22 -23 -12 -19 -71 -8 -120 23 l-50 32 35 6 c23 4 44 1 60 -9
14 -8 37 -21 53 -29z m-1114 -27 c22 -24 41 -47 41 -50 0 -3 -12 -5 -26 -5
-25 0 -73 41 -95 82 -8 15 -6 18 14 18 16 0 39 -16 66 -45z m953 13 l52 -32
-31 -9 c-26 -8 -38 -4 -82 24 -28 19 -51 37 -51 41 0 19 64 5 112 -24z m-814
-31 c23 -23 42 -45 42 -49 0 -4 -15 -5 -32 -2 -22 4 -46 21 -70 47 -21 23 -38
45 -38 48 0 19 61 -9 98 -44z m682 11 l43 -32 -27 -9 c-21 -7 -35 -3 -71 20
-58 36 -65 53 -22 53 21 0 49 -11 77 -32z m-554 -10 c58 -64 59 -67 18 -58
-33 8 -104 63 -104 82 0 4 13 8 28 8 19 0 38 -11 58 -32z m158 -27 c37 -38 39
-41 18 -41 -31 0 -60 16 -99 53 -42 40 -41 47 4 37 22 -5 52 -25 77 -49z m260
22 l46 -38 -31 -3 c-30 -3 -91 30 -120 64 -9 11 -5 14 23 14 26 0 48 -10 82
-37z m-131 -13 l42 -39 -35 -1 c-27 0 -46 9 -80 40 l-45 39 38 1 c31 0 46 -7
80 -40z"/>
<path d="M7211 6857 c-50 -18 -69 -51 -80 -142 -16 -132 -8 -142 189 -217 84
-33 85 -33 85 -68 0 -34 -2 -35 -40 -38 -21 -2 -54 -1 -72 3 -29 5 -33 9 -33
39 0 33 -1 33 -52 40 -112 13 -108 15 -108 -60 0 -114 16 -125 222 -150 214
-25 238 -9 246 162 6 119 -3 130 -158 189 l-115 43 0 39 0 38 50 -3 c75 -5 85
-10 85 -42 0 -27 2 -29 58 -35 106 -13 97 -17 100 52 6 119 -6 126 -303 158
-22 2 -55 -1 -74 -8z"/>
<path d="M6443 6817 c-54 -8 -63 -13 -63 -30 0 -20 81 -559 85 -565 2 -2 397
59 402 63 2 1 -2 29 -8 63 -13 72 -4 70 -150 45 -54 -9 -101 -14 -103 -12 -2
2 -19 103 -38 224 -26 169 -37 220 -48 221 -8 1 -43 -3 -77 -9z"/>
<path d="M7785 6768 c-27 -72 -184 -542 -182 -543 17 -13 402 -133 408 -128 4
5 14 32 23 61 12 40 12 54 3 57 -7 3 -61 23 -122 44 -119 42 -122 46 -96 113
l10 27 86 -30 c48 -16 94 -29 104 -29 12 0 22 16 34 53 9 30 17 56 17 59 0 3
-43 18 -96 34 l-95 29 6 40 c3 22 9 43 14 47 4 5 61 -10 126 -32 65 -22 122
-40 125 -40 11 0 42 112 33 120 -7 7 -375 130 -389 130 -2 0 -7 -6 -9 -12z"/>
<path d="M5908 6657 c-31 -13 -60 -26 -64 -29 -3 -4 9 -51 29 -105 19 -54 63
-177 98 -273 34 -96 63 -176 64 -177 1 -2 64 20 141 48 76 28 162 58 189 66
28 8 51 16 52 17 5 5 -39 126 -45 126 -4 0 -55 -17 -114 -37 -69 -24 -110 -34
-116 -28 -5 6 -42 101 -82 213 -40 111 -78 202 -84 201 -6 0 -37 -10 -68 -22z"/>
<path d="M8302 6473 c-157 -258 -244 -404 -241 -407 13 -10 128 -76 132 -76 3
0 40 61 83 135 43 74 82 135 86 135 4 0 8 -64 8 -142 0 -79 3 -166 6 -194 6
-49 8 -52 65 -87 32 -20 61 -37 63 -37 2 0 13 15 24 33 189 316 282 475 282
481 0 3 -4 6 -9 6 -5 0 -32 14 -60 31 -28 17 -56 29 -63 26 -8 -2 -36 -42 -62
-88 -27 -46 -61 -102 -75 -123 l-26 -40 -6 95 c-4 52 -7 135 -8 186 l-1 91
-65 36 c-36 20 -67 36 -69 36 -3 0 -31 -44 -64 -97z"/>
<path d="M5591 6505 c-29 -19 -55 -36 -58 -39 -4 -3 89 -166 208 -363 l20 -31
-55 -37 c-31 -20 -63 -35 -72 -33 -8 2 -67 86 -130 188 -63 102 -119 184 -124
182 -21 -5 -120 -75 -120 -85 0 -5 21 -44 47 -86 25 -42 78 -128 117 -191 83
-136 99 -156 140 -170 46 -15 83 -1 214 82 128 81 156 112 146 168 -7 43 -246
444 -265 447 -8 0 -38 -14 -68 -32z"/>
<path d="M5080 6148 c-25 -23 -94 -88 -153 -145 -97 -93 -107 -105 -95 -122
18 -25 380 -405 390 -409 5 -2 34 21 65 51 l56 54 -77 83 -78 83 72 72 73 73
-39 46 c-21 25 -41 46 -43 46 -3 0 -38 -33 -78 -72 l-73 -73 -35 36 c-22 22
-33 41 -30 50 4 8 44 48 90 89 46 41 84 79 84 83 1 5 -18 28 -41 52 l-43 45
-45 -42z"/>
<path d="M8760 5969 l-204 -211 130 -124 c71 -69 148 -134 170 -144 71 -34 89
-24 242 132 76 77 143 151 151 165 17 34 17 88 -2 117 -16 25 -262 269 -276
274 -4 1 -99 -93 -211 -209z m292 -46 c26 -26 48 -52 48 -58 -1 -15 -204 -225
-219 -225 -13 0 -111 88 -111 99 0 12 212 231 223 231 6 0 33 -21 59 -47z"/>
<path d="M6735 6144 c-372 -48 -754 -205 -1068 -440 -213 -159 -372 -323 -551
-567 -70 -96 -82 -108 -120 -117 -22 -6 -52 -15 -65 -21 -34 -14 -35 -6 -4 28
18 19 50 36 85 47 36 10 62 24 69 37 14 26 8 32 -22 21 -13 -5 -37 -12 -52
-16 l-28 -7 22 43 c12 24 35 62 50 85 38 55 38 73 -1 73 -39 0 -62 -24 -152
-160 -343 -519 -460 -1207 -317 -1868 62 -287 224 -649 387 -865 28 -36 42
-47 64 -47 26 0 32 8 29 37 -1 6 -17 38 -37 70 -32 52 -35 63 -30 110 11 101
16 102 73 15 29 -42 68 -93 88 -112 l35 -34 -6 34 c-3 19 -10 50 -15 69 -9 39
-11 41 63 -54 314 -397 709 -668 1178 -809 95 -28 241 -59 370 -77 126 -18
432 -16 578 5 606 84 1172 430 1545 946 l18 25 -6 -25 c-3 -14 -8 -45 -11 -70
l-7 -45 32 30 c18 17 53 58 77 93 27 37 52 62 63 62 10 0 37 7 60 15 22 8 41
11 41 6 0 -4 -34 -62 -75 -128 -41 -67 -75 -128 -75 -137 0 -8 9 -20 21 -27
28 -14 54 10 126 120 102 155 213 385 278 576 156 462 159 1053 9 1518 -83
255 -219 522 -351 685 -26 32 -41 42 -63 42 -42 0 -45 -15 -10 -65 17 -25 40
-65 51 -89 17 -39 18 -51 8 -98 -6 -29 -13 -55 -15 -57 -9 -10 -33 36 -34 64
0 19 -3 25 -8 17 -10 -15 -17 -8 -105 111 -192 262 -452 498 -718 652 -46 27
-109 72 -140 99 -30 28 -77 63 -105 78 -70 38 -187 68 -264 68 -36 0 -108 9
-160 21 -227 49 -566 63 -805 33z m1090 -110 c127 -32 262 -136 288 -219 5
-15 2 -14 -10 5 -130 193 -407 246 -648 124 -132 -68 -273 -202 -331 -315 -27
-54 -57 -89 -76 -89 -6 0 -2 10 10 23 30 31 28 37 -10 32 -32 -5 -32 -5 8 14
53 24 70 47 28 37 -16 -4 -37 -9 -46 -12 -10 -3 -18 -1 -18 4 0 5 27 20 60 32
33 12 60 25 60 28 0 2 -26 2 -57 -2 -52 -5 -56 -4 -39 9 11 8 43 21 72 30 29
8 56 20 60 26 4 7 0 9 -12 6 -11 -3 -39 -8 -64 -12 -42 -6 -44 -5 -25 10 11 8
38 20 60 26 84 21 93 29 28 24 -35 -2 -63 -3 -63 0 0 10 64 37 123 50 l62 15
-65 -5 -65 -5 25 19 c25 20 64 31 106 31 12 0 25 4 29 9 3 6 -10 8 -32 5 -35
-5 -37 -4 -19 10 24 20 140 64 225 86 87 23 257 25 336 4z m-40 -129 c-16 -8
-37 -14 -45 -14 -8 0 1 7 20 14 46 18 64 17 25 0z m115 -9 c0 -7 -101 -38
-106 -33 -3 3 14 12 38 20 44 16 68 20 68 13z m-881 -50 c-16 -14 -77 -35
-175 -61 -82 -21 -182 -48 -223 -61 -40 -12 -68 -17 -62 -11 14 14 474 167
481 160 3 -3 -7 -15 -21 -27z m917 -2 c-38 -13 -73 -21 -79 -17 -12 7 87 41
123 41 14 0 -5 -10 -44 -24z m103 -18 c-2 -2 -28 -14 -57 -25 -36 -14 -59 -18
-69 -12 -13 7 -6 12 33 24 46 14 102 22 93 13z m41 -39 c0 -7 -23 -21 -52 -30
-41 -13 -55 -14 -66 -4 -12 10 -5 15 39 28 68 21 79 22 79 6z m27 -76 c4 -26
1 -46 -7 -56 -14 -16 -60 -21 -60 -6 0 5 -12 24 -26 41 -15 17 -23 34 -20 38
14 14 91 39 99 32 5 -4 11 -26 14 -49z m-1157 23 c0 -22 -27 -45 -63 -54 -112
-29 -253 -68 -472 -132 -132 -39 -249 -72 -260 -75 -49 -10 101 44 345 126
423 141 450 149 450 135z m-40 -164 c0 -14 -7 -20 -21 -20 -11 0 -114 -25
-227 -55 -334 -90 -277 -66 213 90 25 8 35 4 35 -15z m-1295 -66 c9 -9 23 -27
31 -39 14 -22 17 -22 45 -8 19 9 42 13 61 9 37 -7 88 -43 88 -62 0 -15 7 -17
58 -14 18 1 45 -6 60 -16 14 -9 57 -23 96 -30 147 -28 99 -34 -293 -34 l-382
0 20 29 c23 32 181 181 192 181 4 0 15 -7 24 -16z m1333 -6 c-2 -6 -69 -29
-149 -50 -79 -21 -215 -59 -303 -84 -87 -25 -160 -43 -162 -41 -4 4 320 110
481 157 110 32 139 36 133 18z m17 -145 c37 -43 92 -97 121 -120 29 -24 67
-67 84 -95 17 -29 29 -44 26 -33 -3 11 -2 25 2 31 12 19 152 42 191 32 22 -7
37 -6 44 1 8 8 17 6 31 -7 18 -16 19 -16 13 1 -8 22 -7 22 31 -6 17 -13 28
-27 24 -31 -4 -4 -2 -6 4 -4 7 1 26 -8 44 -20 30 -23 31 -26 25 -73 -8 -54 4
-79 36 -79 11 0 19 -7 19 -15 0 -29 40 -58 71 -51 25 5 31 1 44 -24 15 -30 38
-39 50 -20 3 6 -3 24 -15 40 -26 37 -14 40 15 4 19 -24 23 -25 43 -13 29 18
30 49 2 42 -11 -3 -20 -1 -20 4 0 22 -50 64 -69 58 -11 -3 -23 0 -27 7 -4 6
-2 14 4 16 6 2 22 12 34 22 21 16 21 20 8 45 -13 24 -12 30 9 71 13 24 26 42
29 39 3 -2 -1 -11 -8 -20 -7 -9 -10 -18 -6 -22 3 -3 -1 -14 -10 -24 -10 -11
-12 -19 -5 -24 6 -3 11 -1 11 4 0 6 4 11 10 11 5 0 7 -7 4 -15 -5 -11 -2 -13
9 -9 9 3 23 -3 34 -15 9 -12 23 -21 30 -21 7 0 13 -6 13 -14 0 -8 17 -20 38
-27 20 -6 41 -18 45 -25 4 -8 14 -14 21 -14 8 0 17 -7 20 -16 4 -11 15 -15 36
-12 24 4 27 2 18 -9 -16 -20 -5 -25 27 -13 15 6 30 8 33 6 2 -3 23 12 46 34
38 36 42 38 58 23 15 -13 23 -14 44 -5 34 16 75 14 99 -4 15 -11 35 -13 93 -8
48 5 115 1 200 -11 224 -30 218 -33 -86 -34 l-293 -1 68 -76 c37 -42 86 -88
108 -103 28 -19 55 -52 89 -113 46 -80 53 -87 87 -93 28 -5 50 -20 89 -61 28
-30 57 -54 65 -54 7 0 46 25 86 54 l72 55 46 -39 c25 -21 57 -50 71 -65 14
-15 46 -43 73 -62 26 -19 47 -41 47 -50 0 -11 -6 -10 -27 7 -16 11 -46 32 -67
47 -22 14 -61 46 -88 71 l-49 45 -42 -32 c-58 -44 -138 -84 -146 -74 -4 4 -26
31 -49 60 -34 41 -50 53 -81 58 -46 8 -65 27 -120 123 -28 48 -55 81 -80 96
-21 14 -78 68 -127 120 -48 53 -91 96 -95 96 -17 0 -216 -208 -239 -249 -20
-36 -39 -52 -95 -82 -69 -37 -82 -51 -195 -200 -11 -14 -39 -34 -62 -44 -41
-17 -147 -66 -159 -72 -8 -5 -31 120 -24 138 3 8 -6 40 -19 70 l-25 54 0 -77
c-1 -62 4 -91 26 -142 l26 -65 -41 -53 c-83 -107 -109 -126 -207 -158 -23 -8
-67 -39 -110 -79 -38 -37 -126 -109 -195 -161 -185 -139 -193 -152 -46 -68
111 62 231 146 269 186 17 18 63 43 115 63 93 36 119 58 237 192 53 60 68 71
135 95 70 26 78 32 128 97 108 142 117 151 182 175 48 18 69 33 91 63 16 22
29 46 29 54 0 7 39 51 86 97 l86 83 76 -80 c91 -96 134 -137 143 -137 3 0 21
-28 39 -62 l33 -61 -77 77 c-75 75 -100 90 -76 47 6 -12 8 -21 4 -21 -12 0
-34 33 -81 125 l-47 90 -6 -37 c-4 -21 -18 -49 -31 -62 -24 -24 -85 -126 -75
-126 2 0 22 25 43 55 l39 54 13 -69 c12 -68 12 -70 -14 -115 -27 -46 -45 -58
-45 -29 0 9 -36 -35 -80 -96 -45 -62 -78 -115 -75 -118 2 -3 36 23 74 56 67
60 91 73 91 51 0 -6 37 -47 83 -91 83 -81 87 -93 9 -30 -24 19 -44 33 -46 31
-2 -2 -16 -24 -31 -49 -16 -25 -51 -65 -78 -89 -27 -24 -65 -69 -86 -100 -23
-35 -52 -65 -79 -79 -30 -17 -57 -47 -97 -106 -46 -70 -108 -143 -93 -111 2 6
13 30 24 55 10 24 42 90 71 147 28 56 46 100 39 97 -7 -3 -50 -48 -97 -101
-73 -83 -233 -222 -244 -211 -2 2 12 24 31 48 38 48 68 99 62 106 -2 2 -44
-21 -93 -51 -83 -50 -153 -74 -186 -63 -23 8 118 101 259 170 144 71 179 99
197 158 4 14 31 72 58 130 28 58 53 110 55 115 3 6 -28 -22 -69 -61 -64 -61
-184 -144 -208 -144 -14 0 -134 -91 -128 -96 3 -3 19 2 37 11 17 9 55 20 83
25 29 5 61 12 72 16 42 15 -62 -79 -163 -148 -91 -62 -218 -125 -229 -114 -2
2 24 25 59 52 35 26 65 49 67 51 34 26 -134 -26 -244 -76 -68 -31 -209 -120
-202 -127 2 -3 40 7 83 21 93 29 115 30 177 9 80 -27 132 -93 144 -181 3 -27
10 -51 16 -54 5 -4 4 -15 -3 -29 -6 -12 -10 -24 -7 -26 2 -2 57 31 123 74 65
43 163 105 217 137 54 32 105 68 114 81 8 13 23 24 32 24 10 0 45 9 79 21 55
18 66 27 96 72 19 29 53 69 74 91 l40 38 66 -37 c36 -20 80 -54 98 -75 18 -21
57 -52 87 -69 30 -18 68 -43 85 -55 74 -54 65 -39 -39 68 -33 34 -119 164
-134 201 -2 5 34 -29 80 -76 61 -63 93 -88 117 -92 40 -8 128 -96 140 -141 10
-36 4 -106 -9 -106 -5 0 -10 7 -10 15 -1 8 -2 18 -4 23 -1 4 -5 24 -9 45 -5
20 -12 39 -16 42 -6 4 -33 -88 -36 -125 -1 -8 -6 -26 -11 -40 -10 -23 -11 -23
-25 20 l-15 45 -12 -43 c-14 -49 -26 -48 -36 4 -8 45 -14 39 -30 -28 l-12 -53
-8 38 c-4 20 -11 40 -17 43 -5 3 -4 12 3 20 8 9 8 14 1 14 -6 0 -14 16 -18 35
-8 44 -20 45 -28 3 -7 -40 -10 -50 -17 -63 -3 -5 -5 -22 -4 -37 0 -16 -3 -28
-9 -28 -5 0 -6 -3 -3 -7 4 -3 2 -13 -5 -20 -9 -11 -9 -16 1 -22 9 -6 8 -11 -4
-21 -16 -14 -16 -14 -21 15 -1 11 -9 40 -17 65 l-15 45 -10 -40 c-6 -22 -14
-56 -17 -75 -7 -42 -22 -60 -30 -37 -16 52 -18 52 -32 4 -13 -45 -33 -57 -31
-19 1 9 -7 44 -17 76 l-18 60 -18 -59 c-10 -32 -16 -62 -13 -66 2 -4 0 -11 -6
-14 -6 -4 -8 -15 -5 -25 4 -11 -1 -20 -12 -24 -15 -6 -15 -9 -3 -16 12 -7 11
-12 -4 -29 -10 -11 -15 -25 -11 -31 8 -13 -12 -40 -29 -40 -6 0 -4 5 4 10 11
7 11 10 2 10 -7 0 -11 4 -7 9 3 5 2 12 -3 15 -5 3 -15 31 -22 63 -7 32 -16 62
-20 66 -7 8 -35 -99 -31 -120 1 -7 -3 -13 -10 -13 -6 0 -9 -6 -6 -13 3 -8 2
-19 -2 -26 -5 -7 -13 13 -21 48 -7 34 -16 61 -20 61 -7 0 -42 -112 -44 -139
-1 -8 -6 -16 -12 -18 -7 -2 -17 21 -25 57 -7 33 -16 60 -19 60 -9 0 -49 -140
-52 -179 -1 -7 -21 -22 -45 -33 -37 -16 -43 -23 -37 -41 3 -12 8 -24 9 -25 2
-2 68 11 147 28 166 37 259 72 380 141 134 77 245 125 343 148 96 23 358 71
388 71 27 0 20 -16 -13 -30 -16 -7 -30 -16 -30 -20 0 -5 14 -11 30 -15 17 -4
30 -10 30 -15 0 -5 -25 -20 -55 -35 -50 -23 -65 -45 -31 -45 8 0 26 -6 41 -14
26 -14 26 -15 7 -25 -12 -6 -27 -11 -36 -11 -20 0 -32 -20 -17 -30 8 -4 2 -11
-18 -20 -34 -14 -41 -30 -13 -30 9 0 29 -6 43 -13 17 -9 33 -11 48 -5 21 7 22
7 11 -8 -25 -30 -90 -55 -132 -52 -42 3 -68 28 -29 28 29 0 26 11 -12 38 -29
20 -30 22 -9 22 29 0 28 9 -5 38 -22 18 -25 25 -13 32 11 7 11 11 1 24 -7 8
-21 41 -31 73 -17 56 -18 57 -24 28 -12 -50 -28 -89 -45 -109 -12 -14 -13 -20
-3 -23 19 -7 14 -23 -13 -35 l-25 -11 21 -18 20 -18 -23 -12 c-32 -16 -32 -16
-15 -33 8 -8 17 -12 21 -9 3 4 6 1 6 -5 0 -6 -21 -21 -47 -33 l-48 -22 30 -13
c17 -7 36 -13 44 -14 21 0 -19 -29 -41 -30 -20 0 -25 -20 -5 -20 6 0 1 -9 -13
-20 l-25 -19 28 -10 c16 -6 33 -9 38 -5 5 3 9 0 9 -6 0 -6 -12 -16 -26 -22
-22 -10 -32 -8 -70 12 -41 23 -63 49 -29 37 7 -3 24 2 36 12 l22 17 -31 13
c-17 7 -37 19 -43 27 -9 11 -6 14 17 14 l29 1 -29 24 c-24 19 -27 26 -18 38
10 11 9 17 -3 27 -8 7 -14 18 -13 24 1 6 -4 22 -10 36 -6 14 -13 42 -17 63 -9
57 -21 41 -41 -57 -3 -11 -9 -25 -14 -31 -5 -7 -6 -15 -2 -19 4 -4 -2 -14 -13
-22 -17 -13 -18 -16 -5 -25 13 -8 12 -12 -8 -28 -15 -13 -18 -21 -10 -24 10
-4 10 -8 -1 -15 -11 -8 -10 -11 5 -14 15 -4 12 -9 -19 -28 -39 -23 -36 -39 7
-40 16 0 16 -2 5 -16 -7 -8 -26 -21 -43 -29 -17 -7 -25 -14 -18 -14 9 -1 11
-8 7 -21 -6 -17 -2 -20 30 -20 47 0 37 -14 -25 -35 -28 -9 -50 -21 -50 -25 0
-5 -7 -7 -15 -4 -14 6 -14 8 1 19 15 11 15 13 -7 29 -16 13 -20 20 -11 23 8 3
10 9 4 16 -5 7 -17 39 -27 72 -27 94 -27 93 -42 45 -8 -25 -15 -52 -15 -60 -1
-8 -5 -21 -11 -27 -5 -7 -6 -13 -1 -13 5 0 1 -5 -10 -11 -15 -9 -16 -13 -5
-20 11 -8 9 -13 -10 -29 -18 -15 -19 -20 -7 -20 22 0 20 -23 -4 -38 -15 -9
-26 -10 -40 -2 -22 12 -26 25 -9 35 7 5 5 13 -6 25 -8 9 -13 24 -9 34 3 9 1
16 -5 16 -6 0 -10 3 -9 8 1 4 -7 33 -16 66 -13 41 -21 55 -27 45 -5 -8 -9 -21
-9 -29 0 -8 -7 -28 -15 -44 -8 -15 -12 -32 -9 -37 3 -5 -2 -12 -11 -15 -13 -5
-14 -9 -4 -15 10 -6 9 -12 -6 -29 -15 -17 -16 -23 -6 -29 10 -7 7 -13 -10 -26
-18 -12 -20 -18 -10 -22 10 -4 11 -7 1 -13 -16 -10 -42 -1 -34 11 3 6 0 16 -6
24 -6 8 -9 19 -6 24 4 5 2 12 -4 16 -6 4 -8 10 -5 15 3 5 -3 30 -13 55 l-19
47 -11 -28 c-15 -41 -25 -75 -28 -102 -1 -13 -7 -29 -14 -37 -6 -8 -7 -14 -1
-17 6 -2 5 -10 -2 -19 -11 -15 -25 -11 -132 42 -127 63 -140 67 -131 44 3 -8
0 -15 -6 -15 -6 0 1 -9 15 -20 14 -11 30 -20 35 -20 6 0 12 -3 14 -7 14 -32
330 -179 503 -234 320 -102 461 -148 499 -164 l38 -16 -23 -26 c-34 -36 -243
-202 -314 -250 -271 -179 -584 -296 -908 -338 -179 -23 -557 -19 -557 6 0 5 7
9 15 9 25 0 17 17 -12 28 -16 6 -37 17 -48 26 -20 15 -20 15 5 16 14 0 35 6
48 14 23 12 23 13 -15 24 -21 6 -51 23 -68 36 l-30 25 43 1 c23 0 42 3 42 6 0
9 -24 30 -42 37 -10 3 -18 13 -18 21 0 8 -7 19 -16 24 -13 7 -10 10 15 15 27
6 45 27 22 27 -4 0 -20 9 -35 21 l-26 21 21 17 22 18 -32 23 c-22 15 -29 25
-21 30 9 6 9 13 -1 31 -7 13 -13 31 -14 39 -1 8 -9 37 -18 63 -10 26 -17 54
-17 62 0 8 -3 15 -8 15 -4 0 -15 -35 -25 -79 -11 -49 -25 -85 -38 -97 -19 -17
-19 -19 -2 -25 10 -4 13 -8 6 -8 -6 -1 -9 -9 -6 -19 3 -11 -7 -25 -27 -40 -24
-18 -28 -25 -18 -36 7 -7 20 -11 28 -8 11 4 11 0 -3 -14 -14 -15 -20 -17 -35
-6 -9 7 -32 20 -49 29 -39 20 -42 33 -10 33 25 0 77 21 77 31 0 4 -17 10 -37
14 -21 4 -51 14 -68 23 -28 16 -29 17 -7 20 12 2 22 8 22 13 0 5 3 8 8 8 45
-7 41 22 -8 50 -47 26 -61 44 -28 36 13 -3 31 0 43 9 15 12 16 16 5 16 -14 1
-70 43 -70 53 0 3 10 7 23 11 21 6 21 6 -9 25 -41 25 -51 41 -25 41 26 0 27
12 1 35 -11 10 -19 23 -19 29 1 6 -5 28 -15 49 -9 20 -19 58 -23 82 -9 66 -19
63 -32 -7 -7 -41 -21 -77 -42 -105 -26 -37 -28 -43 -12 -43 14 -1 12 -6 -12
-25 -28 -24 -29 -25 -7 -25 32 0 27 -17 -10 -37 l-33 -17 30 -6 29 -5 -28 -23
c-34 -26 -35 -26 -64 -6 -25 17 -29 34 -7 34 22 0 18 12 -12 37 -27 22 -27 22
-5 23 28 0 28 5 -3 42 -16 19 -23 37 -20 48 3 10 1 21 -4 24 -5 4 -15 31 -21
61 -11 53 -30 75 -30 35 0 -10 -9 -42 -20 -70 -11 -28 -19 -55 -17 -61 1 -6
-6 -16 -15 -22 -19 -13 -66 0 -127 37 -35 20 -35 21 -11 24 41 5 90 23 90 33
0 5 -12 12 -26 15 -15 4 -23 12 -20 19 3 8 -8 18 -25 25 -31 13 -39 30 -14 30
20 0 65 22 65 32 0 4 -6 8 -13 8 -7 0 -32 12 -55 27 l-42 28 37 10 36 10 -36
25 c-42 28 -48 50 -15 50 22 0 22 1 -5 26 -21 19 -25 29 -18 38 8 10 5 18 -9
31 -11 10 -25 43 -32 76 -7 33 -15 59 -18 59 -3 0 -11 -25 -18 -56 -6 -32 -19
-66 -29 -76 -15 -17 -15 -21 -3 -29 13 -8 10 -14 -12 -34 -34 -29 -35 -35 -5
-35 20 0 19 -4 -15 -34 l-38 -34 25 -6 c30 -8 32 -17 6 -33 -23 -15 -79 -1
-113 27 l-23 19 25 1 c14 0 33 7 43 14 18 14 17 15 -4 21 -15 5 -18 10 -9 15
8 5 2 12 -19 21 -17 8 -31 20 -31 27 0 7 3 11 8 9 4 -2 20 1 37 8 l30 13 -35
14 c-19 8 -41 22 -49 31 -12 15 -11 17 5 17 11 0 25 4 33 9 11 7 7 13 -18 25
-33 18 -41 36 -15 36 13 0 10 7 -11 26 -20 18 -25 28 -16 33 9 6 7 16 -7 42
-11 19 -23 53 -27 77 -9 54 -21 54 -29 -1 -4 -23 -16 -58 -27 -76 -15 -24 -17
-36 -9 -41 8 -5 3 -14 -14 -28 -31 -24 -33 -32 -5 -32 20 0 20 0 -3 -28 -26
-32 -41 -31 -115 7 -54 27 -62 41 -24 41 17 0 31 5 31 10 0 6 10 10 23 10 23
0 55 16 47 23 -3 3 -23 12 -45 21 -29 12 -36 19 -26 25 10 6 5 11 -17 16 -37
8 -65 35 -36 35 23 0 84 22 84 31 0 4 -10 9 -22 13 -13 3 -38 15 -57 27 l-35
21 38 17 37 18 -42 28 -42 28 29 12 29 12 -37 23 c-39 22 -47 35 -27 42 8 3 5
18 -9 47 -12 23 -26 67 -32 97 -6 30 -15 54 -20 54 -4 0 -11 -20 -15 -45 -3
-25 -19 -70 -35 -100 -24 -45 -26 -55 -13 -55 14 0 14 -3 -2 -20 -10 -11 -27
-20 -38 -20 -16 0 -17 -3 -7 -15 7 -8 21 -15 32 -15 29 0 17 -22 -25 -46 -41
-23 -39 -34 6 -34 18 0 27 -4 25 -12 -5 -15 -95 -54 -104 -46 -9 10 -34 127
-49 233 -17 119 -31 355 -21 355 12 0 310 -128 494 -212 96 -43 197 -88 224
-99 45 -18 50 -18 37 -3 -13 16 -11 17 16 10 38 -8 -84 64 -307 181 -91 48
-165 89 -163 91 3 3 166 -72 435 -200 194 -92 213 -100 207 -84 -4 10 -1 13 9
9 7 -3 14 -3 14 0 0 9 -156 96 -355 199 -104 54 -187 98 -183 98 9 0 467 -202
530 -233 35 -18 50 -21 59 -13 9 8 10 8 4 -2 -4 -8 0 -21 10 -32 19 -21 85
-22 120 -3 23 13 67 0 112 -34 21 -17 33 -20 38 -13 4 7 16 10 26 7 10 -3 20
-2 22 2 2 3 3 1 1 -5 -1 -6 2 -17 7 -25 6 -11 11 -11 21 -1 9 9 15 5 25 -20
11 -25 16 -29 23 -19 12 20 75 -40 102 -96 27 -58 44 -70 58 -44 9 17 8 20 -5
15 -11 -5 -13 -2 -9 10 3 9 0 18 -7 21 -18 7 -21 55 -3 55 7 0 17 7 22 17 8
13 10 11 10 -11 0 -35 37 -75 53 -59 6 6 8 17 4 23 -6 9 -10 9 -16 -1 -5 -8
-9 -9 -9 -4 0 6 4 17 10 25 7 12 12 12 28 -4 12 -10 23 -13 26 -8 3 6 -36 31
-86 56 -51 25 -127 64 -168 86 -41 23 -83 46 -93 52 -10 5 -17 12 -14 14 3 3
94 -38 202 -90 175 -85 198 -94 212 -81 13 14 6 19 -62 51 -41 20 -74 39 -71
41 2 3 44 -11 93 -31 55 -22 91 -32 97 -26 5 5 8 12 5 14 -2 2 -191 97 -419
210 -228 113 -412 205 -408 206 4 0 49 -18 100 -41 51 -23 170 -74 263 -114
94 -40 233 -100 309 -134 76 -34 145 -61 152 -61 8 0 14 10 14 23 0 20 -37 40
-299 167 -165 80 -298 146 -296 148 3 3 263 -102 395 -160 103 -44 272 -110
275 -106 12 12 -29 36 -187 112 l-176 85 -17 48 c-9 26 -21 58 -26 71 -5 12
-5 22 -1 22 16 0 49 -46 74 -100 27 -60 20 -56 220 -136 l58 -23 -56 72 c-77
100 -168 206 -176 206 -5 1 -8 -14 -8 -31 l-1 -33 -16 30 c-9 17 -26 56 -39
87 -12 31 -34 73 -50 93 -26 35 -26 36 -7 41 26 7 46 43 41 77 -3 26 -5 25
-93 -44 -49 -38 -115 -94 -145 -123 -54 -52 -111 -96 -125 -96 -4 0 3 16 15
35 12 19 17 35 11 35 -18 0 -174 -71 -231 -106 -30 -18 -68 -36 -85 -40 -24
-5 -15 5 45 49 97 72 224 143 284 158 33 8 69 31 126 78 43 36 100 75 127 85
26 11 60 27 74 38 27 18 27 18 88 -23 61 -41 90 -46 150 -28 9 2 27 -18 48
-56 40 -70 77 -110 142 -156 l46 -32 -46 49 c-25 27 -66 84 -89 128 l-43 79
32 -5 c17 -2 31 -3 31 0 0 2 -11 17 -25 34 -29 34 -33 89 -9 108 8 8 27 34 41
59 15 25 28 48 30 50 2 3 10 -5 19 -17 24 -35 36 -25 19 16 -11 24 -14 49 -9
72 3 19 8 31 9 25 2 -5 15 -49 30 -97 25 -81 26 -88 11 -111 -16 -23 -15 -28
4 -77 17 -43 20 -65 14 -124 -4 -52 -1 -82 10 -115 9 -24 16 -53 16 -65 0 -23
58 -101 68 -91 3 3 5 36 5 73 -1 37 1 70 4 75 2 4 18 -2 34 -13 16 -12 29 -19
29 -16 0 17 -84 131 -94 128 -8 -1 -17 22 -25 69 -14 76 -10 95 11 57 12 -22
13 -21 18 22 l6 45 24 -47 c16 -32 30 -48 43 -48 10 0 32 -14 48 -31 18 -19
29 -25 29 -17 0 26 -37 124 -62 164 -34 54 -51 101 -43 114 8 13 -47 131 -70
150 -13 11 -15 8 -15 -20 0 -18 5 -50 11 -70 8 -26 8 -43 1 -56 -9 -15 -12
-12 -21 26 -6 25 -27 95 -47 157 -34 105 -35 113 -20 135 9 12 16 33 16 46 0
12 10 36 22 53 21 27 23 28 33 11 20 -36 95 -115 95 -100 0 9 -9 26 -19 40
-11 13 -33 52 -51 86 -30 59 -31 65 -24 147 4 47 4 85 2 85 -3 0 -38 -40 -77
-90 -63 -78 -109 -127 -87 -92 14 23 -14 12 -48 -19 -20 -17 -50 -56 -67 -87
-84 -149 -134 -202 -188 -202 -23 0 -71 -54 -71 -81 0 -29 -33 -88 -74 -134
l-37 -40 21 43 c12 24 19 47 15 50 -3 3 -70 -60 -149 -141 -126 -128 -156
-156 -156 -144 0 1 37 52 83 112 52 70 99 121 128 140 30 20 65 58 100 110 52
77 56 81 110 95 32 8 66 23 77 33 11 11 52 74 91 141 75 131 88 145 138 165
18 7 51 34 74 60 24 25 65 70 92 99 l50 53 30 -38 c17 -21 61 -67 97 -103 49
-48 79 -89 113 -157 l47 -91 64 -22 c75 -24 88 -38 152 -150 45 -80 87 -130
108 -130 6 0 2 6 -9 13 -11 9 -15 19 -10 27 5 9 4 11 -3 6 -7 -4 -12 -1 -12 8
0 9 5 16 11 16 8 0 7 6 -2 16 -7 9 -34 58 -59 108 l-45 91 -78 40 c-78 40 -78
40 -133 136 -37 67 -68 108 -101 135 -27 22 -59 53 -73 69 -14 17 -43 49 -65
73 l-40 42 -99 -109 c-76 -84 -111 -115 -148 -131 -41 -17 -55 -32 -94 -93
-25 -40 -67 -107 -94 -149 -48 -76 -50 -78 -110 -95 -57 -16 -65 -21 -102 -75
l-39 -59 -36 31 c-19 18 -47 37 -62 43 -14 7 -71 56 -126 110 -55 53 -103 97
-108 97 -17 0 -175 -146 -220 -203 -55 -71 -62 -77 -100 -77 -21 0 -47 -17
-95 -60 -37 -33 -72 -60 -77 -60 -9 0 -85 46 -119 73 -7 6 -69 -35 -164 -105
-181 -135 -212 -155 -212 -135 0 14 85 86 180 153 53 37 141 105 168 131 7 7
14 13 15 13 2 0 29 -20 62 -45 33 -25 64 -45 69 -45 5 0 37 27 72 60 52 50 68
60 98 60 30 0 39 6 60 38 13 20 39 54 57 74 44 49 191 178 202 178 10 0 129
-103 195 -168 29 -30 49 -42 60 -37 9 3 13 3 10 -1 -4 -3 9 -17 29 -31 39 -26
36 -27 80 35 9 13 38 29 72 38 66 19 74 27 128 122 l42 72 -242 2 c-133 1
-264 2 -292 4 -27 1 -131 2 -229 3 -99 1 -177 3 -175 5 5 4 261 22 515 36 167
9 185 12 228 36 37 21 56 25 94 22 36 -3 54 0 76 16 22 15 52 22 112 26 l82 5
117 123 c64 67 120 122 124 122 4 0 38 -35 76 -77z m1704 5 c71 -78 181 -213
181 -223 0 -11 -914 -14 -925 -3 -8 8 51 25 122 34 31 4 59 14 69 25 21 23 71
33 104 21 21 -8 27 -5 42 19 32 53 103 71 171 44 12 -5 17 -2 17 8 0 42 100
116 157 117 14 0 38 -17 62 -42z m-1161 -63 c-3 -3 -9 2 -12 12 -6 14 -5 15 5
6 7 -7 10 -15 7 -18z m-94 -17 c-5 -8 -1 -9 10 -5 9 4 15 3 13 -1 -2 -4 17
-25 44 -47 26 -22 50 -47 54 -55 6 -14 -30 15 -70 56 -11 12 -29 26 -39 32
-11 5 -21 17 -22 26 -1 9 2 14 7 10 5 -3 6 -10 3 -16z m86 -35 c-1 -10 -39 39
-40 51 0 5 9 -3 20 -17 11 -14 20 -29 20 -34z m49 0 c12 -24 19 -43 16 -43 -5
0 -45 75 -45 86 0 11 6 2 29 -43z m-89 -50 c0 -7 -39 17 -46 28 -3 6 5 3 20
-6 14 -10 26 -19 26 -22z m297 -49 c-2 -47 -10 -91 -16 -97 -8 -8 -11 -5 -11
10 0 30 -26 49 -45 33 -8 -7 -15 -20 -16 -29 -1 -13 -67 112 -69 129 0 3 9 6
21 7 12 1 23 -7 29 -20 8 -19 9 -19 9 -3 1 15 4 16 16 6 12 -10 15 -10 15 1 0
8 6 5 15 -7 14 -19 14 -19 15 1 0 17 2 17 10 5 7 -12 11 -8 16 18 12 58 17 34
11 -54z m1410 -133 c6 -26 -23 -131 -37 -131 -17 0 -22 63 -9 127 12 58 14 63
26 46 8 -10 17 -29 20 -42z m-2446 -62 c-29 -28 -56 -47 -60 -44 -3 4 18 29
47 57 29 28 56 47 60 43 4 -4 -17 -29 -47 -56z m-1721 12 c0 -21 -40 -51 -94
-70 -33 -11 -62 -19 -64 -16 -2 2 5 16 16 32 25 34 142 79 142 54z m4229 -80
c0 -20 -8 -58 -18 -86 -17 -47 -18 -49 -29 -28 -16 29 -15 52 5 124 15 54 18
59 30 43 7 -10 13 -34 12 -53z m-3634 40 c44 -11 -167 -21 -280 -12 l-90 7 55
7 c30 4 69 9 85 11 41 6 193 -3 230 -13z m336 -103 c34 -29 67 -66 75 -81 9
-16 31 -35 51 -44 38 -15 103 -63 103 -75 0 -4 -20 -21 -45 -38 -25 -17 -78
-72 -119 -123 -94 -118 -111 -137 -123 -137 -5 0 -22 33 -38 73 -15 39 -37 89
-47 111 l-19 38 -25 -23 c-57 -54 -10 49 56 124 49 54 51 59 36 76 -9 10 -16
31 -16 47 0 27 -3 25 -77 -49 -43 -42 -94 -97 -113 -121 -26 -34 -42 -45 -62
-46 -19 0 -46 -17 -85 -51 -32 -29 -94 -84 -137 -123 -44 -39 -93 -81 -109
-93 -70 -52 -29 -4 128 150 151 149 171 165 209 170 32 5 48 14 73 44 52 61
207 221 216 222 5 0 35 -23 68 -51z m-1005 4 c-10 -20 -33 -35 -81 -54 l-66
-27 18 32 c13 22 36 39 74 54 70 29 72 28 55 -5z m1712 -50 c-54 -56 -99 -122
-120 -177 -11 -28 -31 -51 -69 -77 -53 -38 -76 -47 -64 -28 20 32 -72 -24
-139 -85 -42 -37 -52 -43 -40 -22 24 38 93 99 140 124 48 24 62 40 111 116 49
77 65 95 132 139 42 27 78 54 80 60 1 5 6 7 9 3 3 -3 -15 -27 -40 -53z m2652
-13 c0 -15 -11 -51 -25 -80 l-24 -53 -11 29 c-9 23 -8 39 5 75 9 25 19 56 22
69 6 23 7 23 19 6 8 -10 14 -31 14 -46z m-374 4 c73 -6 76 -8 39 -14 -52 -10
-292 -11 -325 -2 -24 7 -23 8 10 14 50 9 184 10 276 2z m-4040 -62 c-10 -18
-38 -40 -77 -60 -34 -17 -63 -30 -65 -28 -2 1 6 18 17 36 12 20 39 41 72 56
66 31 71 31 53 -4z m4458 -27 c12 -31 5 -70 -23 -122 -21 -38 -30 -48 -35 -36
-11 28 -7 57 16 116 24 61 32 69 42 42z m-4509 -104 c-13 -25 -60 -58 -127
-88 -4 -2 -3 11 3 28 8 21 27 40 63 60 67 39 81 39 61 0z m1779 -15 c-8 -13
-40 -38 -69 -54 -29 -17 -56 -35 -60 -41 -3 -5 -10 -10 -15 -10 -5 0 3 19 18
42 19 28 43 48 77 64 64 29 69 29 49 -1z m1815 -79 c39 -52 71 -98 71 -102 0
-13 -70 58 -99 101 -27 41 -54 95 -46 95 2 0 35 -42 74 -94z m961 29 c0 -18
-14 -54 -35 -85 l-34 -55 -1 42 c0 26 10 64 27 98 28 57 43 57 43 0z m-4090
19 c22 -15 40 -28 40 -30 0 -2 -42 -46 -92 -97 -98 -99 -178 -165 -178 -149 0
11 73 107 90 117 5 3 10 11 10 17 0 6 -8 4 -18 -5 -23 -21 -33 -22 -25 -1 3 9
-20 -1 -57 -25 -34 -22 -66 -38 -71 -35 -25 15 1 45 101 118 61 44 117 88 127
98 21 23 26 23 73 -8z m245 -54 c-16 -16 -33 -30 -39 -30 -5 0 3 14 19 30 16
17 33 30 39 30 5 0 -3 -13 -19 -30z m1072 -1 c-13 -17 -75 -69 -84 -69 -9 0 1
12 40 49 45 44 67 54 44 20z m-1807 6 c0 -24 -35 -64 -83 -96 -33 -22 -61 -38
-62 -37 -2 2 3 17 10 35 15 35 135 123 135 98z m830 -74 c-5 -11 -10 -30 -10
-43 1 -21 3 -20 34 15 l34 38 10 -31 c6 -17 18 -33 27 -36 10 -4 15 -19 15
-43 0 -31 -8 -42 -56 -85 -75 -65 -157 -127 -162 -121 -3 3 13 24 36 49 41 44
77 104 69 113 -3 2 -28 -16 -56 -41 -29 -25 -53 -46 -55 -46 -2 0 11 30 30 68
35 69 41 92 25 92 -6 0 -66 -34 -134 -75 -69 -41 -128 -75 -132 -75 -3 0 33
37 81 83 56 52 94 81 105 79 10 -2 42 15 71 37 59 45 85 53 68 22z m3067 -14
c13 -11 47 -57 77 -101 72 -107 87 -122 158 -156 64 -31 173 -108 165 -117 -7
-6 -237 107 -237 117 0 4 -19 22 -42 40 -42 34 -45 32 -23 -25 6 -15 2 -13
-13 7 -12 14 -22 31 -22 36 0 6 -20 34 -45 63 -48 56 -51 72 -10 45 43 -28 28
2 -32 65 -54 57 -56 60 -28 53 17 -3 40 -16 52 -27z m713 -36 c-7 -19 -26 -53
-41 -74 -27 -37 -29 -38 -31 -16 -3 46 2 62 34 111 27 41 33 46 41 32 7 -12 6
-29 -3 -53z m-1045 -71 l17 -35 -35 34 c-35 33 -67 86 -67 111 0 16 61 -64 85
-110z m754 -10 c10 0 43 -24 74 -52 l56 -53 6 -95 c5 -68 3 -91 -4 -80 -6 8
-11 26 -12 40 l-1 25 -9 -27 -10 -26 -47 43 c-26 24 -65 56 -87 70 -22 15 -51
37 -65 50 -28 25 -72 49 -110 58 -30 8 -82 78 -62 85 7 2 40 23 75 47 l62 43
58 -64 c32 -35 67 -64 76 -64z m-4365 46 c-7 -28 -124 -126 -124 -103 2 33 30
71 75 102 28 18 51 32 53 30 2 -1 0 -14 -4 -29z m204 -8 c-9 -13 -30 -31 -47
-41 -30 -17 -31 -17 -31 0 1 17 79 77 89 68 2 -3 -3 -15 -11 -27z m3668 -61
c22 -24 57 -68 80 -98 31 -42 62 -67 133 -108 88 -50 166 -109 158 -117 -6 -7
-201 75 -229 96 -16 12 -28 17 -28 13 1 -14 35 -53 65 -74 l30 -21 -27 6 c-26
6 -26 5 -20 -37 l5 -42 -43 36 c-24 20 -46 42 -48 50 -3 8 9 1 27 -15 37 -36
39 -29 7 29 -53 94 -82 128 -145 170 -36 24 -77 53 -90 65 -45 39 -15 30 53
-16 38 -25 70 -43 73 -41 2 3 -7 27 -20 54 -51 102 -44 121 19 50z m780 -78
l-46 -63 0 37 c0 26 11 54 37 94 l38 56 9 -31 c8 -28 4 -38 -38 -93z m-4672
17 c-6 -26 -100 -113 -111 -103 -15 15 12 61 58 97 29 22 54 39 56 37 2 -3 1
-16 -3 -31z m1075 -34 c-32 -37 -107 -92 -124 -92 -14 0 29 42 89 87 32 23 60
43 63 43 3 0 -10 -17 -28 -38z m2721 -66 c35 -79 16 -73 -31 9 -32 55 -41 101
-15 75 8 -8 29 -46 46 -84z m925 -5 c-8 -14 -30 -44 -50 -66 l-35 -40 0 34 c0
24 12 49 43 90 40 55 42 56 49 33 4 -15 1 -35 -7 -51z m-1285 0 c0 -11 -4 -9
-14 4 -8 11 -12 24 -9 28 7 11 23 -12 23 -32z m-3450 -15 c0 -27 -36 -75 -81
-107 l-29 -20 0 27 c0 21 14 40 52 76 29 26 53 48 55 48 2 0 3 -11 3 -24z
m1460 -12 c0 -3 -11 -15 -25 -26 -14 -11 -32 -33 -41 -50 -8 -16 -18 -28 -21
-25 -2 3 -22 -1 -44 -8 -47 -17 -48 -11 -8 35 33 39 139 95 139 74z m3290
-104 c-6 -15 -29 -44 -51 -66 l-39 -38 0 30 c0 29 17 58 70 118 24 27 25 27
28 6 2 -12 -2 -34 -8 -50z m-4760 -21 c0 -24 -12 -44 -55 -87 -50 -52 -55 -55
-55 -32 0 14 8 37 18 51 18 27 83 99 89 99 1 0 3 -14 3 -31z m4770 -86 c0 -30
-7 -43 -47 -80 -26 -23 -50 -43 -54 -43 -18 0 11 64 51 109 24 28 46 51 47 51
2 0 3 -16 3 -37z m-4770 -51 c0 -20 -15 -46 -50 -86 l-50 -57 0 32 c0 22 13
49 40 86 46 60 60 66 60 25z m1040 -12 c0 -5 -4 -10 -10 -10 -5 0 -10 5 -10
10 0 6 5 10 10 10 6 0 10 -4 10 -10z m97 -52 c-3 -8 -6 -5 -6 6 -1 11 2 17 5
13 3 -3 4 -12 1 -19z m50 -3 c3 -9 3 -19 -1 -22 -7 -7 -36 16 -36 28 0 15 30
10 37 -6z m3583 -13 c0 -32 -25 -64 -84 -108 -31 -23 -38 -25 -33 -11 4 10 7
24 7 31 0 11 98 116 107 116 2 0 3 -13 3 -28z m-3675 7 c10 -15 -1 -23 -20
-15 -9 3 -13 10 -10 16 8 13 22 13 30 -1z m165 -24 c0 -7 7 -16 16 -19 31 -12
8 -16 -29 -5 -37 10 -52 42 -24 52 15 5 37 -11 37 -28z m-220 5 c0 -5 -4 -10
-10 -10 -5 0 -10 5 -10 10 0 6 5 10 10 10 6 0 10 -4 10 -10z m331 -30 c9 -8
26 -21 36 -27 16 -11 15 -12 -9 -7 -25 5 -27 4 -22 -20 5 -28 4 -29 -20 -20
-13 5 -15 14 -10 40 5 26 2 35 -10 40 -13 5 -14 9 -4 21 10 12 13 13 17 2 2
-8 12 -21 22 -29z m-1371 -13 c0 -23 -12 -49 -39 -85 -39 -52 -51 -56 -51 -17
0 18 75 135 87 135 2 0 3 -15 3 -33z m1220 2 c23 -18 26 -24 16 -35 -8 -7 -23
-10 -35 -7 -24 6 -29 23 -6 23 8 0 12 6 9 14 -3 8 -12 12 -20 9 -8 -3 -14 0
-14 6 0 17 18 13 50 -10z m288 2 c3 -8 -1 -12 -9 -9 -7 2 -15 10 -17 17 -3 8
1 12 9 9 7 -2 15 -10 17 -17z m-388 -11 c0 -5 -4 -10 -10 -10 -5 0 -10 5 -10
10 0 6 5 10 10 10 6 0 10 -4 10 -10z m175 -10 c-3 -5 -12 -10 -18 -10 -7 0 -6
4 3 10 19 12 23 12 15 0z m35 -4 c0 -3 -4 -8 -10 -11 -5 -3 -10 -1 -10 4 0 6
5 11 10 11 6 0 10 -2 10 -4z m-110 -40 c0 -3 -4 -8 -10 -11 -5 -3 -10 -1 -10
4 0 6 5 11 10 11 6 0 10 -2 10 -4z m3326 -18 c-3 -13 -8 -45 -11 -73 -11 -85
-26 -145 -37 -145 -16 0 -69 41 -63 49 2 5 19 11 37 15 l33 7 -32 15 c-17 9
-39 24 -48 34 -15 16 -14 18 11 24 25 7 25 8 9 26 -16 17 -14 19 32 43 61 32
75 33 69 5z m205 -20 c-7 -22 -29 -47 -61 -71 -48 -36 -50 -36 -50 -15 0 13 4
28 8 34 11 18 105 94 110 89 2 -2 -1 -19 -7 -37z m-3311 17 c0 -8 -4 -15 -9
-15 -5 0 -11 7 -15 15 -3 9 0 15 9 15 8 0 15 -7 15 -15z m60 -20 c0 -8 -2 -15
-4 -15 -2 0 -6 7 -10 15 -3 8 -1 15 4 15 6 0 10 -7 10 -15z m-1480 -27 c0 -27
-74 -151 -83 -141 -18 18 -5 69 30 114 41 54 53 60 53 27z m1600 -69 c0 -5 -4
-9 -8 -9 -5 0 -9 7 -9 15 0 8 4 12 9 9 4 -3 8 -9 8 -15z m3115 -28 c-4 -20
-23 -43 -61 -71 -31 -23 -58 -40 -60 -37 -13 13 27 72 71 106 28 21 52 37 53
35 2 -1 1 -16 -3 -33z m-4695 -40 c0 -29 -57 -141 -72 -141 -21 0 -6 76 23
122 36 55 49 60 49 19z m4669 -88 c-6 -15 -15 -33 -22 -41 -16 -20 -98 -75
-103 -70 -14 14 23 68 69 100 63 44 69 46 56 11z m-219 -13 c0 -23 -8 -25 -32
-6 -25 18 -22 26 7 26 18 0 25 -5 25 -20z m-4420 -27 c0 -16 -14 -57 -31 -93
-32 -65 -32 -65 -40 -35 -10 35 -5 55 28 113 29 49 43 54 43 15z m130 -3 c0
-5 14 -10 31 -10 44 0 37 -34 -9 -38 -17 -2 -32 0 -32 5 0 4 -3 18 -6 31 -4
13 -2 22 5 22 6 0 11 -4 11 -10z m2967 -52 c-3 -8 -6 -5 -6 6 -1 11 2 17 5 13
3 -3 4 -12 1 -19z m1499 -57 c-14 -27 -114 -97 -123 -87 -2 2 2 15 8 30 11 24
117 101 127 92 2 -2 -4 -18 -12 -35z m-4582 -107 c-16 -34 -32 -61 -36 -58
-17 11 -7 79 19 133 l26 56 9 -34 c8 -27 4 -45 -18 -97z m156 86 c0 -5 -5 -10
-11 -10 -5 0 -7 5 -4 10 3 6 8 10 11 10 2 0 4 -4 4 -10z m3938 -106 c26 6 26
6 8 -9 -25 -19 -40 -19 -79 2 l-32 17 35 6 c24 3 36 1 38 -8 3 -9 13 -12 30
-8z m448 -2 c-8 -16 -21 -33 -28 -39 -21 -18 -98 -46 -105 -39 -10 10 47 64
91 85 55 27 59 26 42 -7z m-4477 -38 c1 -28 -43 -136 -52 -128 -14 15 -6 94
14 141 18 41 22 45 29 28 5 -11 9 -29 9 -41z m481 18 c0 -4 -20 -18 -45 -30
-25 -12 -45 -26 -45 -31 0 -11 25 -21 51 -21 10 0 19 -4 19 -10 0 -18 -40 -10
-80 16 -45 30 -48 34 -21 27 10 -2 24 2 32 10 8 7 27 17 42 21 15 3 27 11 27
16 0 6 5 10 10 10 6 0 10 -4 10 -8z m3949 -104 c-12 -27 -65 -61 -111 -72 -26
-6 -27 -5 -17 17 6 14 36 35 72 53 34 16 63 28 65 28 1 -1 -2 -13 -9 -26z
m-4379 -31 c0 -15 -8 -54 -17 -88 l-16 -60 -14 33 c-16 37 -13 74 12 132 13
30 19 36 26 25 5 -8 9 -26 9 -42z m3970 28 c-7 -8 -17 -15 -23 -15 -6 0 -2 7
9 15 25 19 30 19 14 0z m-305 -75 c13 -6 15 -9 5 -9 -8 0 -22 4 -30 9 -18 12
-2 12 25 0z m-3611 -36 c9 -25 7 -95 -5 -139 -10 -37 -12 -38 -25 -20 -17 23
-18 57 -2 124 12 52 21 63 32 35z m4266 -14 c-14 -25 -44 -45 -98 -64 -33 -12
-42 -12 -42 -2 0 20 30 42 85 65 63 25 68 25 55 1z m-946 -19 c18 -7 18 -8 -5
-24 -13 -9 -35 -16 -49 -16 -23 2 -23 2 -2 6 22 4 32 23 11 23 -5 0 -7 5 -4
10 7 11 22 12 49 1z m-214 -31 c0 -5 8 -7 18 -4 16 5 16 5 -1 -6 -9 -6 -27 -8
-39 -5 -16 6 -18 9 -7 16 18 11 29 11 29 -1z m-2523 -13 c-1 -7 15 -14 38 -17
l40 -6 -27 -13 c-24 -12 -30 -11 -57 10 -36 29 -37 34 -11 36 11 1 19 -4 17
-10z m2333 -7 c0 -5 -4 -10 -10 -10 -5 0 -10 5 -10 10 0 6 5 10 10 10 6 0 10
-4 10 -10z m-2297 -150 c8 0 7 -4 -1 -12 -9 -9 -16 -8 -30 6 -16 18 -16 19 1
12 10 -3 24 -6 30 -6z m2704 4 c-3 -3 -12 -4 -19 -1 -8 3 -5 6 6 6 11 1 17 -2
13 -5z m-2347 -119 c0 -8 -12 -21 -27 -29 -28 -15 -28 -16 -5 -22 12 -3 22
-10 22 -15 0 -17 -21 -9 -68 24 -44 30 -45 32 -22 35 14 2 29 8 35 13 15 15
65 11 65 -6z m230 -141 c0 -2 -9 -8 -19 -14 -14 -7 -28 -7 -47 2 l-28 13 30 5
c27 6 64 2 64 -6z m-272 -20 c-9 -9 -24 -14 -32 -11 -27 11 -17 27 16 27 30 0
31 -1 16 -16z m550 -330 c18 -9 20 -13 8 -17 -9 -4 -28 4 -43 18 -29 26 -16
26 35 -1z"/>
<path d="M8126 4891 c-4 -6 -14 -8 -24 -5 -14 5 -15 4 -2 -5 13 -9 9 -15 -10
-13 -3 0 -6 -8 -6 -19 0 -17 4 -15 30 11 17 16 27 32 24 35 -3 4 -9 2 -12 -4z"/>
<path d="M7181 4865 c1 -19 18 -51 18 -35 0 8 -4 22 -9 30 -5 8 -9 11 -9 5z"/>
<path d="M7086 4825 c3 -22 21 -72 40 -112 19 -39 34 -79 34 -87 0 -8 8 -32
17 -51 14 -29 19 -33 23 -19 5 13 14 5 39 -37 18 -30 30 -43 26 -29 -3 14 -8
41 -12 60 -3 19 -13 44 -23 55 -46 54 -27 79 30 41 48 -32 74 -69 67 -97 -5
-19 30 -88 46 -89 23 -1 -23 138 -64 194 -16 22 -29 46 -29 53 0 19 -43 103
-53 103 -4 0 -5 -6 -1 -12 5 -9 2 -9 -9 1 -21 17 -21 12 -2 -25 8 -16 15 -39
15 -52 l0 -23 -33 25 c-18 14 -45 42 -60 63 -63 86 -58 82 -51 38z"/>
<path d="M7146 4508 c28 -53 86 -138 95 -138 5 0 23 -19 40 -42 l32 -43 -6 36
c-3 20 -19 50 -36 70 -17 18 -31 38 -31 42 0 10 -97 107 -106 107 -2 0 3 -15
12 -32z"/>
<path d="M7150 4123 c0 -5 9 -18 20 -28 11 -10 20 -14 20 -8 0 5 -9 18 -20 28
-11 10 -20 14 -20 8z"/>
<path d="M7174 3743 c-12 -2 -34 -17 -49 -34 -16 -16 -34 -29 -39 -29 -62 0
-150 -60 -161 -109 -4 -21 -14 -31 -33 -36 -51 -13 -228 -125 -256 -163 -27
-35 -25 -135 3 -219 30 -90 29 -103 -11 -97 -18 2 -175 16 -348 29 -285 23
-316 28 -329 45 -16 23 -37 26 -48 6 -4 -8 -18 -16 -31 -18 -29 -4 -30 -22 -1
-26 12 -2 30 -13 39 -24 15 -20 17 -20 34 -3 17 17 27 17 214 1 516 -45 502
-43 524 -71 11 -14 29 -25 41 -25 14 0 28 -11 39 -30 13 -22 45 -43 127 -82
l111 -53 0 -72 c0 -40 -3 -73 -7 -73 -5 0 -35 16 -67 36 -118 71 -189 101
-235 101 l-44 0 34 -18 c35 -19 66 -26 39 -9 -8 5 -12 12 -8 15 6 6 113 -57
145 -85 7 -5 19 -10 28 -10 18 0 105 -84 105 -101 0 -7 9 -9 25 -5 14 4 24 3
23 -1 -4 -21 17 -43 48 -49 19 -3 34 -10 34 -15 0 -5 7 -9 16 -9 9 0 25 -9 35
-21 10 -11 22 -18 27 -15 5 3 26 -9 47 -27 21 -18 58 -43 82 -57 23 -14 95
-57 160 -96 65 -39 137 -81 160 -93 50 -25 112 -27 155 -5 21 11 43 14 77 9
55 -7 125 16 142 47 15 28 0 40 -70 54 -71 15 -155 47 -335 131 -124 58 -147
72 -205 131 l-65 67 3 127 c4 152 4 152 -123 278 -48 46 -86 90 -86 98 0 7 18
32 41 57 47 51 37 54 161 -40 36 -27 91 -63 122 -79 56 -29 72 -42 38 -32 -10
3 -56 -3 -102 -13 -47 -11 -80 -20 -75 -21 6 -1 13 -2 17 -1 4 0 5 -6 2 -14
-8 -19 -15 -19 91 10 99 27 105 28 105 18 0 -14 -102 -127 -124 -138 -21 -11
-31 -51 -15 -61 16 -9 49 7 49 24 0 9 23 44 52 77 41 49 57 60 82 61 91 3 118
91 45 146 -69 51 -213 196 -246 248 -20 30 -40 58 -46 61 -5 4 -3 10 5 15 23
13 48 69 48 105 0 86 -51 157 -127 178 -39 11 -51 12 -89 4z m105 -42 c45 -23
70 -59 78 -108 5 -32 4 -35 -11 -30 -10 4 -24 7 -32 7 -8 0 -23 19 -34 43 -37
83 -80 108 -122 70 -10 -9 -18 -11 -18 -5 0 18 42 42 73 42 15 0 45 -9 66 -19z
m-208 -79 c-23 -42 -13 -88 34 -158 25 -36 45 -68 45 -71 0 -2 -35 30 -77 72
-42 41 -83 75 -90 75 -20 0 -16 34 8 64 17 22 76 49 87 40 2 -1 -1 -11 -7 -22z
m89 -17 c19 -19 40 -35 47 -35 21 0 15 -17 -9 -24 -27 -6 -88 46 -88 76 0 26
12 22 50 -17z m150 -56 c27 -6 50 -14 50 -18 0 -12 -40 -61 -49 -61 -5 0 -6
11 -3 25 3 17 11 25 25 25 32 0 13 11 -45 25 -65 16 -48 19 22 4z m-30 -60
c-6 -10 -19 -19 -30 -19 -18 0 -18 1 3 23 26 27 42 25 27 -4z m-304 0 c26 -29
26 -111 1 -136 -17 -17 -18 -17 -8 10 14 35 14 40 1 32 -5 -3 -10 0 -11 7 0 7
-5 2 -11 -12 -10 -24 -10 -24 -18 -5 -8 20 -9 20 -9 -1 -1 -11 -11 -29 -23
-40 -20 -18 -21 -18 -15 -1 4 10 3 16 -3 12 -5 -3 -15 3 -22 15 -7 11 -17 20
-22 20 -6 0 -5 -5 2 -12 7 -7 12 -19 12 -27 0 -11 -4 -10 -15 5 -14 18 -14 18
-15 -10 l0 -30 -33 32 c-35 34 -61 44 -35 15 23 -28 33 -47 19 -39 -20 13 -71
18 -71 8 0 -6 11 -13 25 -16 29 -7 40 -27 47 -81 l5 -40 -47 0 c-32 0 -46 4
-43 11 2 7 0 15 -6 19 -19 11 -12 31 17 42 26 11 26 11 3 12 -20 1 -21 3 -11
16 10 13 9 15 -9 15 -54 0 7 77 97 122 27 14 62 34 78 45 56 39 92 42 120 12z
m279 -39 c37 0 37 -1 23 -22 -9 -13 -24 -24 -36 -26 -24 -4 -62 34 -62 61 0
19 1 19 18 4 11 -10 35 -17 57 -17z m109 -103 c22 -32 70 -87 108 -122 60 -56
66 -64 48 -70 -11 -3 -20 -11 -20 -16 0 -5 -5 -9 -11 -9 -7 0 -9 10 -5 25 6
23 4 25 -26 23 -29 -3 -33 0 -30 21 2 19 -2 22 -18 18 -22 -6 -26 3 -8 21 18
18 4 24 -26 12 -35 -13 -53 -3 -29 16 17 12 16 13 -10 14 -19 0 -26 4 -21 12
5 8 2 9 -10 5 -10 -4 -16 -4 -14 0 2 5 10 20 17 36 19 36 7 46 -18 16 l-20
-24 9 33 c11 39 30 66 39 55 4 -4 24 -34 45 -66z m-227 -2 c2 -8 -1 -23 -7
-35 -9 -18 -17 -20 -43 -14 -18 3 -33 7 -35 9 -1 1 3 23 10 48 l12 46 29 -21
c16 -11 31 -26 34 -33z m92 -20 c-14 -24 -28 -35 -44 -35 -18 0 -22 4 -18 20
7 28 27 41 75 49 4 0 -2 -15 -13 -34z m-129 -75 c0 -9 -40 -62 -55 -72 -5 -4
-21 -7 -35 -7 -24 0 -24 1 -4 9 33 13 41 32 9 20 -40 -15 -64 -11 -27 5 45 20
40 26 -15 19 l-48 -5 40 20 c38 19 135 27 135 11z m45 -40 c-22 -22 -43 -40
-47 -40 -15 0 43 79 60 83 29 6 27 -2 -13 -43z m-367 -63 c3 -16 1 -17 -17 -7
-12 6 -32 8 -44 4 -20 -6 -20 -5 -8 10 19 22 65 17 69 -7z m210 -37 c30 0 40
-9 26 -22 -6 -7 -116 20 -128 32 -5 5 9 4 30 -1 22 -4 54 -9 72 -9z m103 0
c-25 -21 -57 -27 -46 -9 7 11 42 28 60 28 6 0 -1 -9 -14 -19z m493 -13 c6 -9
7 -19 3 -23 -9 -10 -48 26 -41 38 8 12 25 6 38 -15z m40 4 c20 -22 18 -62 -4
-69 -13 -5 -13 -3 -1 12 12 15 11 21 -8 46 -24 33 -14 41 13 11z m-816 -60 c2
-40 0 -52 -10 -49 -7 3 -15 15 -19 29 l-7 24 -1 -23 c-1 -15 -6 -22 -13 -18
-7 3 -21 9 -31 12 -23 8 -33 50 -16 70 8 10 26 14 53 12 l41 -3 3 -54z m380
-8 c30 -25 72 -69 93 -96 l39 -49 0 -113 c0 -63 -4 -116 -9 -119 -11 -7 -21
45 -14 74 5 18 3 21 -7 15 -10 -6 -11 -4 -5 11 4 10 10 30 13 44 5 23 4 24
-13 10 -17 -14 -18 -13 -11 14 6 23 4 27 -8 23 -12 -5 -16 0 -16 19 0 41 -26
80 -87 130 -37 30 -50 45 -35 42 12 -4 22 -2 22 4 0 5 -9 12 -20 15 -11 3 -17
9 -14 14 8 14 14 11 72 -38z m-348 6 c0 -11 -4 -17 -10 -14 -5 3 -10 15 -10
26 0 11 5 17 10 14 6 -3 10 -15 10 -26z m233 -41 c34 -18 79 -50 100 -70 32
-31 38 -41 33 -65 -3 -15 -11 -71 -17 -123 -11 -96 -14 -108 -25 -97 -9 9 -9
46 0 96 l8 44 -32 -34 -31 -34 25 46 c14 25 26 49 26 52 0 4 -15 4 -32 1 l-33
-5 30 25 c17 14 26 26 20 27 -5 0 -32 1 -60 1 -43 0 -46 1 -20 8 25 6 26 8 8
9 -29 1 -30 21 -2 21 39 0 8 20 -34 21 -30 1 -35 3 -17 7 21 4 17 8 -30 23
-32 10 -45 17 -32 18 39 2 24 20 -20 23 l-43 4 35 16 c50 25 75 22 143 -14z
m-53 -388 c0 -5 -4 -10 -10 -10 -5 0 -10 5 -10 10 0 6 5 10 10 10 6 0 10 -4
10 -10z m70 -10 c0 -5 -5 -10 -11 -10 -5 0 -7 5 -4 10 3 6 8 10 11 10 2 0 4
-4 4 -10z m267 -14 c-2 -6 -11 -10 -20 -10 -9 1 -13 -4 -10 -12 7 -18 -11 -18
-26 0 -9 11 -8 17 3 29 17 17 59 11 53 -7z m-133 1 c16 -11 15 -14 -13 -35
-31 -23 -45 -10 -19 16 9 9 8 12 -4 12 -9 0 -20 -4 -23 -10 -3 -5 -11 -10 -17
-10 -6 0 -3 9 7 20 21 23 44 25 69 7z m-149 -27 c3 -5 1 -10 -4 -10 -6 0 -11
5 -11 10 0 6 2 10 4 10 3 0 8 -4 11 -10z m323 -18 c2 -14 -2 -22 -12 -22 -19
0 -29 17 -22 36 8 22 30 12 34 -14z m-288 8 c0 -5 -4 -10 -10 -10 -5 0 -10 5
-10 10 0 6 5 10 10 10 6 0 10 -4 10 -10z m160 -5 c26 -32 -18 -63 -48 -33 -9
9 -8 16 5 30 20 22 27 22 43 3z m220 -95 c3 5 34 -4 68 -20 115 -54 301 -130
361 -146 65 -18 75 -28 39 -38 -47 -12 -95 -7 -100 12 -4 12 -23 21 -67 30
-34 7 -141 49 -239 93 -189 86 -257 128 -137 85 39 -14 72 -21 75 -16z m-40
30 c0 -5 -2 -10 -4 -10 -3 0 -8 5 -11 10 -3 6 -1 10 4 10 6 0 11 -4 11 -10z
m-119 -33 c-1 -12 -15 -9 -19 4 -3 6 1 10 8 8 6 -3 11 -8 11 -12z m179 -77
c131 -66 239 -110 270 -110 16 0 31 -4 34 -9 8 -13 -41 -31 -85 -31 -42 0 -71
12 -214 94 -49 28 -107 60 -127 71 -21 11 -38 23 -38 27 0 18 84 -4 160 -42z"/>
<path d="M7271 3662 c13 -17 28 -31 32 -31 14 -1 -13 38 -35 50 -21 11 -21 10
3 -19z"/>
<path d="M7028 3609 c-30 -17 -22 -61 18 -100 l36 -34 -22 43 c-15 29 -20 52
-16 72 3 17 4 30 3 30 -1 0 -10 -5 -19 -11z"/>
<path d="M6710 3051 c0 -5 5 -13 10 -16 6 -3 10 -2 10 4 0 5 -4 13 -10 16 -5
3 -10 2 -10 -4z"/>
<path d="M7998 3626 c-36 -13 -83 -37 -103 -54 -19 -18 -43 -32 -53 -32 -33 0
-118 -48 -194 -110 -43 -34 -78 -64 -78 -66 0 -2 37 16 83 40 45 25 105 50
132 57 28 6 73 28 100 47 144 103 196 142 189 141 -5 0 -39 -11 -76 -23z"/>
<path d="M6138 3503 c7 -3 16 -2 19 1 4 3 -2 6 -13 5 -11 0 -14 -3 -6 -6z"/>
<path d="M6622 2780 c5 -16 86 -62 115 -66 22 -2 66 -29 111 -69 13 -11 38
-23 55 -28 18 -4 40 -9 49 -11 39 -10 3 21 -60 52 -37 18 -78 40 -92 48 -14 7
-56 28 -95 45 -38 18 -74 34 -79 37 -5 3 -7 -1 -4 -8z"/>
<path d="M4728 5497 c-190 -255 -336 -554 -409 -839 -21 -85 -21 -130 1 -63 7
22 26 68 41 103 16 34 29 65 29 68 0 23 145 288 211 384 84 125 226 293 273
324 37 23 29 28 -28 17 l-48 -9 6 37 c3 20 9 46 12 59 12 42 -11 21 -88 -81z"/>
<path d="M9270 5573 c4 -16 11 -41 15 -56 l6 -29 -49 4 -50 3 88 -92 c122
-127 257 -319 341 -485 18 -35 61 -130 95 -213 35 -82 64 -143 64 -134 0 31
-50 212 -85 307 -52 140 -175 383 -247 489 -75 109 -170 232 -180 233 -4 0 -3
-12 2 -27z"/>
<path d="M4441 5415 c0 -36 16 -116 19 -95 4 27 -2 83 -10 104 -8 18 -9 17 -9
-9z"/>
<path d="M9628 5405 c-4 -22 -8 -53 -7 -70 0 -30 0 -30 10 -5 6 13 9 45 7 70
l-3 45 -7 -40z"/>
<path d="M4470 5264 c0 -16 5 -36 11 -44 7 -11 8 -4 3 25 -8 50 -14 58 -14 19z"/>
<path d="M9607 5283 c-11 -19 -19 -78 -9 -68 11 11 27 75 18 75 -2 0 -7 -3 -9
-7z"/>
<path d="M4280 5191 c0 -13 119 -161 130 -161 17 0 11 11 -39 69 -26 31 -53
66 -60 79 -12 22 -31 30 -31 13z"/>
<path d="M9732 5125 c-34 -41 -62 -82 -62 -91 0 -9 30 21 66 65 36 45 64 86
62 91 -2 6 -31 -24 -66 -65z"/>
<path d="M4660 5145 c0 -5 5 -17 10 -25 5 -8 10 -10 10 -5 0 6 -5 17 -10 25
-5 8 -10 11 -10 5z"/>
<path d="M9410 5129 c-7 -11 -10 -23 -7 -25 2 -2 9 7 15 21 14 30 7 33 -8 4z"/>
<path d="M9041 5114 c0 -11 3 -14 6 -6 3 7 2 16 -1 19 -3 4 -6 -2 -5 -13z"/>
<path d="M4700 5077 c0 -14 31 -69 36 -64 3 3 -4 20 -15 38 -12 19 -21 30 -21
26z"/>
<path d="M9357 5048 c-10 -17 -16 -33 -13 -35 2 -3 12 9 21 27 21 41 15 48 -8
8z"/>
<path d="M4261 5033 c22 -20 52 -59 65 -86 14 -27 28 -47 30 -44 10 9 -55 125
-82 146 -46 36 -56 23 -13 -16z"/>
<path d="M9805 5038 c-35 -30 -94 -128 -78 -128 5 0 21 22 36 50 15 27 44 63
65 80 20 16 31 30 25 30 -7 0 -28 -14 -48 -32z"/>
<path d="M4570 5021 c0 -5 19 -33 43 -64 23 -30 48 -64 55 -74 12 -17 13 -17
9 2 -2 11 -24 48 -48 82 -41 58 -59 74 -59 54z"/>
<path d="M9446 4959 c-35 -52 -45 -74 -37 -82 8 -8 11 -8 11 0 0 6 20 40 45
76 25 37 45 69 45 72 0 17 -21 -4 -64 -66z"/>
<path d="M4565 4877 c25 -46 45 -94 45 -106 0 -12 4 -20 9 -17 15 9 -7 74 -47
144 -54 92 -59 75 -7 -21z"/>
<path d="M9516 4908 c-38 -61 -56 -110 -55 -147 1 -20 3 -17 10 13 5 22 28 72
50 113 47 85 44 97 -5 21z"/>
<path d="M9900 4860 c-7 -34 -26 -80 -41 -103 -39 -58 -39 -105 1 -151 39 -43
77 -53 125 -31 32 16 49 45 25 45 -5 0 -10 -4 -10 -9 0 -5 -13 -14 -30 -21
-86 -36 -155 75 -96 153 31 40 64 153 49 168 -7 7 -14 -9 -23 -51z"/>
<path d="M4158 4904 c-14 -23 34 -161 62 -179 20 -12 11 -83 -14 -111 -28 -34
-84 -38 -116 -9 -18 16 -20 16 -20 2 0 -9 14 -24 32 -33 26 -13 38 -14 70 -5
73 22 100 109 56 179 -13 20 -32 66 -43 102 -12 36 -24 60 -27 54z"/>
<path d="M4489 4842 c61 -121 22 -226 -121 -323 -77 -52 -156 -89 -192 -89
-34 0 -96 20 -96 32 0 4 -10 13 -22 19 l-23 12 20 -23 c31 -34 69 -50 125 -50
56 0 99 18 192 82 117 79 160 142 159 232 0 50 -35 146 -53 146 -5 0 0 -17 11
-38z"/>
<path d="M9574 4838 c-13 -28 -19 -65 -19 -109 0 -59 4 -73 30 -111 58 -81
213 -187 297 -202 24 -4 50 -1 73 8 45 19 98 56 91 64 -4 3 -16 -4 -29 -16
-69 -65 -144 -55 -284 37 -161 105 -203 202 -142 323 21 42 23 48 11 48 -5 0
-18 -19 -28 -42z"/>
<path d="M4529 4534 c-13 -14 -39 -34 -57 -46 -18 -11 -31 -23 -28 -26 7 -7
116 76 116 88 0 15 -4 13 -31 -16z"/>
<path d="M9526 4545 c7 -16 102 -90 109 -83 2 2 -23 25 -55 51 -33 26 -57 40
-54 32z"/>
<path d="M4400 4440 c-8 -5 -12 -11 -9 -14 3 -3 14 1 25 9 21 16 8 20 -16 5z"/>
<path d="M9664 4435 c11 -8 22 -12 25 -9 6 6 -19 24 -34 24 -5 -1 -1 -7 9 -15z"/>
<path d="M4500 4416 c-22 -22 -356 -196 -389 -202 -18 -4 -42 1 -69 15 -50 25
-59 26 -41 4 18 -21 71 -43 103 -43 14 0 60 19 103 41 43 23 125 66 183 96
112 58 135 74 129 92 -3 8 -9 7 -19 -3z"/>
<path d="M9562 4408 c2 -7 47 -35 98 -61 52 -27 133 -71 180 -97 108 -61 143
-68 204 -41 25 11 46 26 46 34 0 11 -11 9 -47 -10 -58 -29 -83 -25 -173 25
-36 20 -100 53 -142 74 -43 20 -96 49 -118 63 -45 28 -53 30 -48 13z"/>
<path d="M4330 4400 c-8 -5 -12 -12 -9 -15 4 -3 12 1 19 10 14 17 11 19 -10 5z"/>
<path d="M9735 4400 c3 -5 11 -10 16 -10 6 0 7 5 4 10 -3 6 -11 10 -16 10 -6
0 -7 -4 -4 -10z"/>
<path d="M4235 4353 c-66 -35 -132 -37 -175 -5 -42 32 -49 21 -8 -13 28 -24
39 -27 88 -23 50 4 144 40 156 60 9 14 -9 8 -61 -19z"/>
<path d="M9814 4357 c58 -50 161 -62 216 -24 19 12 36 28 38 36 3 8 -12 1 -33
-14 -48 -37 -109 -38 -180 -5 -71 34 -74 34 -41 7z"/>
<path d="M4445 4276 c-77 -25 -151 -66 -215 -120 -36 -31 -84 -63 -108 -73
-40 -15 -48 -15 -93 -1 -47 16 -62 11 -36 -10 18 -16 82 -25 117 -17 17 4 76
40 130 81 89 68 196 124 235 124 8 0 15 7 15 15 0 8 -1 15 -2 14 -2 0 -21 -6
-43 -13z"/>
<path d="M9592 4279 c2 -7 26 -20 54 -29 77 -27 123 -53 199 -115 104 -86 156
-102 231 -70 49 20 34 37 -15 18 -56 -22 -99 -11 -171 45 -113 87 -150 111
-203 130 -88 33 -100 35 -95 21z"/>
<path d="M9610 4129 c0 -5 30 -24 68 -43 71 -36 94 -56 112 -96 10 -24 10 -24
4 5 -3 17 -13 38 -22 48 -20 22 -162 98 -162 86z"/>
<path d="M4385 4091 c-67 -37 -106 -79 -104 -111 0 -8 5 -4 10 10 16 40 40 60
112 96 61 31 79 45 60 44 -5 -1 -39 -18 -78 -39z"/>
<path d="M4194 3945 l-21 -60 -61 -3 c-34 -2 -62 -6 -62 -11 0 -4 20 -22 45
-40 25 -18 45 -33 45 -35 0 -1 -7 -26 -16 -55 -8 -29 -13 -56 -10 -59 3 -3 26
9 50 26 24 18 48 32 53 32 4 0 26 -14 47 -30 22 -17 43 -30 47 -30 5 0 2 21
-6 48 -21 67 -20 69 30 104 25 18 45 35 45 40 0 4 -28 8 -63 8 l-63 0 -20 63
-20 62 -20 -60z"/>
<path d="M9846 3935 l-17 -55 -65 0 c-35 0 -64 -3 -64 -7 0 -5 23 -24 50 -43
34 -24 48 -40 44 -50 -19 -48 -32 -100 -24 -100 5 0 29 14 54 31 l44 31 47
-32 c25 -17 49 -30 52 -27 3 3 -2 29 -10 57 -17 57 -20 50 63 119 l25 20 -66
1 -66 0 -18 55 c-11 30 -22 55 -25 55 -4 0 -14 -25 -24 -55z"/>
<path d="M3990 3630 c14 -10 38 -29 53 -41 15 -12 50 -65 77 -119 66 -131 89
-156 188 -202 148 -70 191 -128 192 -254 0 -39 -9 -104 -19 -144 -20 -76 -20
-106 -1 -54 48 124 50 263 6 339 -31 51 -90 97 -159 122 -77 28 -134 85 -178
178 -21 44 -47 92 -57 107 -22 34 -91 87 -112 87 -10 0 -6 -6 10 -19z"/>
<path d="M4202 3625 c0 -16 2 -22 5 -12 2 9 2 23 0 30 -3 6 -5 -1 -5 -18z"/>
<path d="M10054 3624 c-51 -35 -57 -43 -112 -154 -57 -115 -93 -152 -188 -195
-40 -19 -89 -45 -108 -60 -47 -36 -79 -113 -79 -195 -1 -64 27 -206 44 -225
13 -14 11 5 -6 61 -22 71 -30 193 -16 236 24 74 64 113 165 164 53 26 110 62
127 80 17 17 54 79 82 135 45 90 58 108 99 134 44 28 59 45 39 45 -4 0 -26
-12 -47 -26z"/>
<path d="M4397 3590 c-49 -31 -64 -61 -53 -105 8 -31 34 -55 97 -90 70 -38 72
-25 2 16 -113 68 -120 119 -23 177 30 17 47 32 39 32 -8 0 -36 -13 -62 -30z"/>
<path d="M9620 3615 c0 -2 18 -14 39 -25 45 -22 71 -54 71 -85 0 -25 -36 -60
-102 -101 -62 -38 -62 -53 0 -18 104 60 136 116 96 172 -19 27 -104 74 -104
57z"/>
<path d="M9881 3584 c0 -11 3 -14 6 -6 3 7 2 16 -1 19 -3 4 -6 -2 -5 -13z"/>
<path d="M4201 3536 c-1 -51 31 -118 72 -149 18 -13 72 -46 120 -72 48 -27 97
-58 108 -68 11 -10 23 -16 27 -12 10 10 -42 49 -145 106 -106 59 -159 111
-168 166 -11 65 -13 69 -14 29z"/>
<path d="M9870 3525 c0 -41 -37 -103 -78 -129 -20 -13 -77 -47 -127 -76 -49
-29 -96 -59 -102 -68 -21 -27 -14 -37 10 -15 12 12 73 51 135 88 123 72 159
112 169 184 3 23 3 41 -1 41 -3 0 -6 -11 -6 -25z"/>
<path d="M3990 3444 c0 -4 15 -23 33 -44 17 -20 53 -66 78 -102 37 -52 58 -71
102 -92 31 -14 66 -26 78 -26 29 0 16 12 -31 30 -54 20 -115 70 -146 119 -15
24 -38 57 -52 73 -24 29 -62 54 -62 42z"/>
<path d="M10044 3413 c-13 -16 -45 -57 -71 -93 -39 -53 -61 -71 -113 -97 -79
-39 -92 -61 -20 -34 70 27 113 61 159 129 21 31 51 68 65 81 14 14 26 28 26
33 0 17 -23 7 -46 -19z"/>
<path d="M4042 3178 c3 -7 49 -36 104 -66 54 -29 113 -66 130 -83 34 -33 55
-97 74 -228 12 -80 31 -131 38 -98 2 10 -1 31 -6 45 -6 15 -14 54 -17 87 -11
96 -40 177 -77 212 -27 26 -227 143 -245 143 -2 0 -3 -6 -1 -12z"/>
<path d="M4320 3173 c0 -5 14 -16 31 -25 36 -21 65 -82 75 -158 10 -85 26 -97
19 -15 -7 85 -42 163 -84 188 -32 19 -41 21 -41 10z"/>
<path d="M9705 3149 c-38 -34 -59 -90 -71 -194 -9 -85 5 -62 22 35 18 100 33
132 79 160 38 24 43 30 20 30 -8 0 -30 -14 -50 -31z"/>
<path d="M4082 3037 c9 -7 30 -20 47 -29 23 -13 34 -29 46 -70 13 -48 14 -59
0 -111 -20 -79 -18 -102 5 -47 41 97 14 221 -54 254 -41 19 -69 21 -44 3z"/>
<path d="M9952 3030 c-38 -24 -71 -88 -72 -141 0 -49 29 -144 41 -132 6 6 4
23 -6 46 -19 46 -19 108 0 153 15 36 51 73 72 74 16 0 27 20 11 20 -7 0 -28
-9 -46 -20z"/>
<path d="M4597 2887 c-20 -62 -20 -67 -8 -67 14 0 45 100 34 111 -6 6 -16 -12
-26 -44z"/>
<path d="M9458 2924 c-4 -19 21 -96 35 -110 11 -11 8 24 -5 70 -14 50 -25 64
-30 40z"/>
<path d="M4543 2755 c-24 -57 -29 -85 -15 -85 7 0 52 115 52 133 0 23 -18 0
-37 -48z"/>
<path d="M9507 2804 c-5 -9 37 -131 51 -144 2 -3 2 11 -1 30 -7 48 -42 126
-50 114z"/>
<path d="M9400 2778 c0 -26 22 -78 30 -73 5 3 4 20 -2 38 -13 38 -28 58 -28
35z"/>
<path d="M4662 2755 c-7 -14 -12 -33 -12 -43 0 -14 2 -13 14 3 18 27 29 65 18
65 -5 0 -14 -11 -20 -25z"/>
<path d="M4234 2665 c-9 -13 -14 -29 -12 -35 2 -7 11 5 21 24 19 41 15 47 -9
11z"/>
<path d="M9830 2688 c0 -3 7 -21 15 -39 10 -24 14 -28 14 -14 0 11 -6 29 -14
39 -8 11 -15 17 -15 14z"/>
<path d="M4620 2655 c-18 -43 -24 -120 -11 -141 9 -16 10 -13 11 19 0 21 5 58
11 82 14 54 6 82 -11 40z"/>
<path d="M9446 2671 c-4 -6 -2 -26 4 -45 6 -18 11 -54 12 -79 0 -26 4 -44 9
-41 5 3 9 24 9 47 0 52 -24 135 -34 118z"/>
<path d="M4748 2620 c-4 -14 -8 -34 -8 -45 1 -19 1 -19 11 -2 6 10 9 30 7 45
l-3 27 -7 -25z"/>
<path d="M9321 2608 c0 -13 4 -32 9 -43 7 -15 9 -10 9 23 1 23 -3 42 -9 42 -5
0 -10 -10 -9 -22z"/>
<path d="M8711 2200 l-124 -120 49 -52 c26 -29 94 -102 151 -162 l103 -109 67
64 c37 35 95 92 130 127 l62 63 -34 37 -34 37 -83 -83 -84 -83 -22 24 c-12 13
-22 28 -22 34 0 6 25 33 55 61 30 28 55 57 55 65 0 7 -14 24 -31 36 l-31 23
-58 -57 -58 -57 -26 18 c-14 11 -26 23 -26 27 0 5 35 42 78 82 l77 74 -35 35
-35 35 -124 -119z"/>
<path d="M5175 2152 c-82 -43 -172 -90 -198 -106 l-49 -29 46 -46 46 -46 42
24 41 23 55 -55 56 -56 -17 -42 c-19 -48 -16 -54 54 -110 l36 -28 38 102 c21
56 60 154 86 217 l49 115 -57 57 c-32 32 -62 58 -68 58 -5 -1 -77 -35 -160
-78z m119 -123 l-35 -71 -35 33 c-18 18 -33 34 -31 35 9 8 124 73 130 74 4 0
-9 -32 -29 -71z"/>
<path d="M5503 1803 c-65 -98 -119 -181 -121 -184 -3 -7 190 -135 245 -163 18
-9 48 -16 68 -16 47 0 70 25 149 155 68 114 78 157 46 198 -18 22 -158 121
-257 180 -8 5 -51 -50 -130 -170z m235 -15 c23 -16 42 -33 42 -39 0 -5 -21
-43 -47 -84 -27 -40 -53 -82 -60 -92 -10 -17 -13 -17 -60 9 -26 15 -52 33 -57
40 -10 17 113 210 128 201 6 -4 30 -19 54 -35z"/>
<path d="M8435 1962 c-58 -33 -220 -144 -223 -153 -2 -5 39 -73 90 -151 52
-79 104 -160 117 -180 12 -21 25 -38 28 -38 3 0 86 53 102 66 2 2 -12 30 -32
63 -43 68 -44 76 -17 91 16 8 35 3 97 -28 l77 -39 53 35 c29 19 53 38 53 41 0
4 -33 23 -72 41 -40 19 -75 35 -76 37 -2 1 2 18 9 38 12 33 11 40 -9 78 -12
23 -38 59 -57 80 -28 30 -41 37 -72 37 -21 -1 -51 -9 -68 -18z m65 -134 c11
-18 20 -36 20 -40 0 -7 -87 -68 -98 -68 -9 0 -52 66 -52 79 0 11 79 60 98 61
7 0 21 -15 32 -32z"/>
<path d="M8073 1742 c-29 -14 -53 -31 -53 -37 0 -7 27 -74 60 -150 33 -76 60
-142 60 -146 0 -9 -86 -49 -105 -49 -7 0 -41 64 -75 143 -34 78 -66 146 -69
150 -11 11 -123 -34 -117 -47 3 -6 32 -75 64 -154 33 -78 67 -153 76 -167 21
-32 61 -48 102 -42 53 9 185 68 221 100 32 28 34 34 30 76 -3 36 -121 329
-138 345 -2 2 -28 -8 -56 -22z"/>
<path d="M5977 1614 c-4 -76 -7 -182 -7 -236 l0 -99 46 -19 c88 -38 78 -43
199 102 61 72 127 151 148 174 20 22 37 46 37 51 0 10 -117 50 -123 42 -29
-39 -190 -239 -192 -237 -1 2 4 59 11 128 19 189 21 178 -28 199 -92 39 -84
49 -91 -105z"/>
<path d="M7580 1570 c-63 -15 -142 -33 -176 -40 l-61 -12 10 -50 c7 -34 14
-48 23 -44 8 3 36 8 63 12 l48 6 16 -68 c8 -38 23 -109 32 -159 10 -49 21 -93
24 -98 4 -4 33 -2 64 4 43 9 57 16 57 29 0 10 -13 76 -29 146 -44 193 -45 176
17 190 30 7 56 15 59 18 10 10 -8 96 -20 95 -7 -1 -64 -14 -127 -29z"/>
<path d="M6465 1570 c-6 -10 -85 -391 -85 -411 0 -12 36 -22 166 -48 91 -18
170 -29 174 -24 4 4 11 27 15 50 l6 41 -53 11 c-29 6 -71 13 -93 17 -62 10
-72 19 -67 53 5 35 6 35 102 19 80 -14 90 -9 90 48 0 30 -2 32 -57 42 -32 7
-67 13 -78 14 -22 3 -32 38 -18 61 7 12 24 11 107 -5 54 -10 100 -17 103 -14
10 9 22 81 15 88 -4 4 -36 12 -72 18 -36 6 -107 19 -158 29 -51 10 -95 15 -97
11z"/>
<path d="M6870 1291 l0 -219 58 -5 c31 -2 61 -1 65 3 5 4 7 60 5 124 -1 64 0
115 4 114 4 -2 42 -55 86 -118 l79 -115 65 -3 65 -3 -4 178 c-2 98 -6 197 -9
221 l-5 42 -61 0 -61 0 5 -115 c2 -63 2 -115 -1 -115 -3 1 -37 46 -76 102 -38
55 -76 107 -83 114 -8 9 -36 14 -73 14 l-59 0 0 -219z"/>
<path d="M5530 1209 c-13 -24 -13 -24 17 -33 27 -9 55 30 32 45 -22 14 -38 10
-49 -12z"/>
<path d="M5817 1047 c-16 -24 -16 -28 -2 -33 22 -9 27 -1 23 32 l-3 28 -18
-27z"/>
<path d="M8223 1072 c-27 -4 -27 -2 -5 -64 15 -44 19 -48 42 -43 34 9 33 7 14
56 -21 53 -23 56 -51 51z"/>
<path d="M6590 845 c0 -20 5 -25 25 -25 29 0 36 34 9 44 -27 10 -34 7 -34 -19z"/>
<path d="M6586 792 c-3 -3 -6 -14 -6 -24 0 -13 7 -18 25 -18 18 0 25 5 25 19
0 18 -33 35 -44 23z"/>
<path d="M6756 835 c-3 -9 -6 -37 -6 -61 0 -44 1 -45 28 -42 26 3 27 5 27 58
0 48 -3 55 -21 58 -13 2 -24 -4 -28 -13z"/>
<path d="M6930 775 c0 -54 0 -55 30 -55 30 0 30 1 30 55 0 54 0 55 -30 55 -30
0 -30 -1 -30 -55z"/>
</g>
</svg>
